<svg width="384" height="512" viewBox="0 0 384 512" fill="none" xmlns="http://www.w3.org/2000/svg">
<g clip-path="url(#clip0)">
<path d="M216 23.8599C216 0.0599041 185.35 -8.9101 171.85 10.8199C48 191.85 224 200 224 288C224 323.63 194.89 352.46 159.15 351.99C123.98 351.54 96 322.22 96 287.05V201.54C96 179.84 69.53 169.31 54.57 185.04C27.8 213.16 0 261.33 0 320C0 425.87 86.13 512 192 512C297.87 512 384 425.87 384 320C384 149.71 216 127 216 23.8599V23.8599Z" fill="white"/>
</g>
<defs>
<clipPath id="clip0">
<rect width="384" height="512" fill="white"/>
</clipPath>
</defs>
</svg>
