<svg width="512" height="506" viewBox="0 0 512 506" fill="none" xmlns="http://www.w3.org/2000/svg">
<path d="M6.46255 442.7L106.163 343C110.663 338.5 114.463 335 118.463 331.5L122.862 327.4C95.2624 292.1 95.4625 256.3 95.4625 208C95.4625 93.1 188.563 0 303.463 0C418.363 0 511.463 93.1 511.463 208C511.463 322.9 418.363 416 303.463 416C255.163 416 223.662 409.6 188.362 382C188.362 382 188.463 380.5 183.963 385L68.7625 505C59.3625 514.4 44.1625 514.4 34.8625 505L6.56255 476.7C-2.83745 467.3 -2.83745 452.1 6.46255 442.7ZM303.463 336C374.163 336 431.463 278.8 431.463 208C431.463 137.3 374.263 80 303.463 80C232.763 80 175.463 137.2 175.463 208C175.463 278.7 232.663 336 303.463 336Z" fill="white"/>
</svg>
