<svg width="200" height="155" viewBox="0 0 200 155" fill="none" xmlns="http://www.w3.org/2000/svg">
<path fill-rule="evenodd" clip-rule="evenodd" d="M196.239 117.962C192.371 122.842 182.896 126.322 182.896 126.322L112.404 151.642V132.97L164.281 114.486C170.168 112.376 171.072 109.395 166.287 107.829C161.511 106.26 152.862 106.71 146.971 108.828L112.404 121.002V101.623L114.397 100.949C114.397 100.949 124.385 97.4137 138.431 95.8576C152.476 94.3105 169.673 96.069 183.174 101.187C198.389 105.995 200.102 113.082 196.239 117.962ZM119.115 86.1659V38.4133C119.115 32.8051 118.08 27.6422 112.818 26.1805C108.789 24.8898 106.288 28.6316 106.288 34.2352V153.819L74.0378 143.583V1C87.7502 3.54549 107.727 9.56291 118.467 13.1833C145.779 22.5602 155.039 34.2307 155.039 60.5266C155.039 86.1569 139.218 95.8711 119.115 86.1659ZM14.862 131.018C-0.757207 126.619 -3.35666 117.454 3.7626 112.174C10.3422 107.299 21.5315 103.629 21.5315 103.629L67.773 87.1867V105.932L34.4973 117.841C28.6193 119.95 27.7154 122.936 32.4915 124.501C37.2722 126.066 45.925 125.621 51.812 123.507L67.773 117.715V134.485C66.7611 134.665 65.6323 134.845 64.5889 135.02C48.6234 137.629 31.619 136.54 14.862 131.018Z" fill="#ADB9D9"/>
</svg>
