<svg width="181" height="181" viewBox="0 0 181 181" fill="none" xmlns="http://www.w3.org/2000/svg">
<path d="M40.6001 57.6001C31.7001 58.6001 23.6001 59.9001 16.4001 61.5001C24.5001 40.8001 41.0001 24.4001 61.7001 16.3001C60.1001 23.5001 58.7001 31.6001 57.7001 40.5001C50.9001 45.1001 45.1001 50.9001 40.6001 57.6001ZM123.3 40.4001C122.3 31.6001 120.9 23.5001 119.2 16.3001C140 24.3001 156.5 40.8001 164.6 61.5001C157.4 59.9001 149.3 58.5001 140.4 57.6001C135.9 50.8001 130.1 45.0001 123.3 40.5001C123.3 40.5001 123.3 40.5001 123.3 40.4001ZM57.7001 140.2C58.7001 149.1 60.0001 157.2 61.7001 164.4C41.0001 156.3 24.5001 139.8 16.4001 119.1C23.5001 120.7 31.5001 122.1 40.5001 123.1C40.6001 123.1 40.6001 123.1 40.7001 123.1C45.1001 129.9 50.9001 135.8 57.7001 140.2ZM140.7 123.1C149.7 122.1 157.7 120.7 164.8 119.1C156.7 139.9 140.1 156.4 119.3 164.5C121 157.4 122.3 149.3 123.4 140.5C123.4 140.4 123.4 140.4 123.4 140.3C130.2 135.8 136 130 140.5 123.2C140.5 123.2 140.6 123.2 140.7 123.1ZM181 75.6001V105C167.1 111.4 146.4 114 139.4 114.8C137.7 115.1 136.1 115.3 134.6 115.3L112.3 90.4001L134.6 65.5001C135.9 65.5001 137.2 65.6001 138.7 65.9001C145.9 66.7001 167 69.2001 181 75.6001ZM46.5001 65.5001L68.8001 90.4001L46.5001 115.3C45.0001 115.3 43.4001 115.1 41.7001 114.8C34.7001 114 14.0001 111.4 0.100098 105V75.6001C14.2001 69.1001 35.2001 66.6001 42.4001 65.9001C43.9001 65.7001 45.2001 65.5001 46.5001 65.5001ZM65.6001 134.4L90.5001 112.2L115.4 134.4C115.4 135.9 115.2 137.5 114.9 139.2C114.1 146.2 111.5 166.9 105.1 180.8H75.8001C69.3001 166.8 66.8001 145.7 66.1001 138.6C65.8001 137 65.6001 135.7 65.6001 134.4ZM75.8001 0.100098H105.2C111.6 14.0001 114.2 34.7001 115 41.7001C115.3 43.4001 115.5 45.0001 115.5 46.5001L90.6001 68.8001L65.7001 46.5001C65.7001 45.2001 65.8001 43.9001 66.1001 42.4001C66.8001 35.2001 69.2001 14.1001 75.8001 0.100098Z" fill="white"/>
</svg>
