<svg width="483" height="483" viewBox="0 0 483 483" fill="none" xmlns="http://www.w3.org/2000/svg">
<path d="M103.5 1.60004C55.4001 10.2 16.7001 45.8001 4.50011 92.6001C0.100107 109.5 -0.199893 119.4 0.300107 250.5C0.600107 370.9 0.700107 373.7 2.70011 383C13.8001 433.1 49.4001 468.8 100 480.6C106.6 482.1 115 482.4 169.1 482.7C225.1 483.1 230.9 483 232.4 481.5C233.9 480 234 460.7 234 241.9C234 79.7001 233.7 3.30004 233 1.90004C232 0.100042 230.3 4.16323e-05 171.7 0.100042C124.1 0.200042 109.8 0.500042 103.5 1.60004ZM194 241.6V444.2L153.3 443.7C115.8 443.3 111.8 443.1 104.3 441.2C72.1001 432.9 48.2001 408.1 41.5001 375.8C39.3001 365.7 39.3001 116.9 41.4001 107C47.4001 78.9001 66.9001 55.6 93.2001 45.1C106.4 39.8 112.5 39.2 155.3 39.1L194 39V241.6Z" fill="#ADB9D9"/>
<path d="M112.1 100.1C105.8 101.3 96.2001 106.1 91.1001 110.6C80.6001 119.7 75.4001 132.6 76.2001 147.8C76.6001 155.7 77.1001 157.8 80.3001 164.2C85.0001 173.9 92.1001 181 101.8 185.8C108.5 189.1 110.2 189.5 118.9 189.8C126.8 190.1 129.6 189.8 134.9 188C156.6 180.7 169.7 159.6 166 138C161.7 112.3 137.3 95.1 112.1 100.1Z" fill="#ADB9D9"/>
<path d="M282.7 0.699993C282.3 0.999993 282 109.4 282 241.6C282 459.7 282.1 481.8 283.6 482.4C286.3 483.4 363.9 483 373.5 482C414.1 477.4 449.9 452.7 469.4 416C471.9 411.3 475.2 403.4 476.9 398.5C483.2 379.7 483 384.7 483 241C483 126.3 482.8 109.2 481.4 101.9C471.5 49.8 431.8 10.5 379.6 1.49999C372.6 0.299993 361.8 -7.19695e-06 327 -7.19695e-06C303 -7.19695e-06 283 0.299993 282.7 0.699993ZM389.5 218.5C405.1 222.6 417.9 234.5 423.1 249.7C426.4 259.1 426.3 272.9 423 281.5C416.9 297.3 404.9 308.4 389.5 312.5C364.5 319 337.9 303.9 330.6 279.1C328.4 271.5 328.5 258.7 331 250.9C338.5 226.4 364.5 212 389.5 218.5Z" fill="#ADB9D9"/>
</svg>
