<svg fill="none" height="1080" viewBox="0 0 1920 1080" width="1920" xmlns="http://www.w3.org/2000/svg" xmlns:xlink="http://www.w3.org/1999/xlink"><linearGradient id="a"><stop offset="0"/><stop offset="1" stop-opacity="0"/></linearGradient><linearGradient id="b" gradientUnits="userSpaceOnUse" x1="266" x2="1727" xlink:href="#a" y1="70.5" y2="1313.5"/><linearGradient id="c" gradientUnits="userSpaceOnUse" x1="1600" x2="1297" xlink:href="#a" y1="110" y2="1253"/><linearGradient id="d" gradientUnits="userSpaceOnUse" x1="699" x2="901.5" xlink:href="#a" y1="1245" y2="578.5"/><clipPath id="e"><path d="m0 0h1920v1080h-1920z"/></clipPath><g clip-path="url(#e)"><path d="m0 0h1920v1080h-1920z" fill="#000"/><path clip-rule="evenodd" d="m1185 655-114 3c-10 0-11 3-6 10l67 90 1 3h1l5 5 3 1h1l3 1 70 18 7 1 6-2 42-20 2-1 1-1c1-2 0-3-1-5l-2-3-66-90c-6-7-11-10-20-10zm-37 19h9l37 50h-10zm46 62h5l11 15h-5l-6-9-1 6-9-5 6 8h-5l-11-15h6l8 6zm-77-62h15c8 0 14 3 18 9l10 13c4 7 3 10-5 10h-5l13 18h-9zm-26 1h21l5 6-11 1 10 14h11l5 7h-11l11 15h12l5 7h-21zm73 75-2 2h-9a23 23 0 0 1 -8-4l-3-3-2-3 1-3 2-2h3c3 0 6 0 10 2l-1 3-3-1-3-1-2 1v1 3l2 1a11 11 0 0 0 7 3l2-1-1-2h-4l-2-3h8zm0-14h5l20 15-6 1-3-3h-8l1 3h-5zm51 41-31-7 54-1zm14-26h-15l-11-15 15-1 2 4h-10l2 2h9l3 4h-9l1 2h10zm-37-36-23-33c-5-6-3-9 4-9h5c7-1 13 2 18 9l7 10h-9l-7-10c-2-2-3-3-6-3h-1c-3 0-3 1-2 3l23 32 6 3h2c2 0 3-1 1-3l-8-11 9-1 9 12c4 6 3 9-5 9l-5 1c-7 0-13-3-18-9zm51 30 1 3v1l-2 1-3 1a23 23 0 0 1 -10-3l1-3c2 2 5 2 7 2h1l1-1h-1l-1-1h-3a60 60 0 0 1 -6-2l-2-1-2-2h-1v-4l1-1h3a20 20 0 0 1 9 2v3a23 23 0 0 0 -6-2l-2 1 1 1h1l1 1h2a41 41 0 0 1 6 1l2 2zm-93-49-9-12c-1-2-3-3-6-3h-4l14 18h4c2 0 3-1 1-3zm22 50-2-5 6 5zm-250-184-114 3c-10 0-11 3-6 10l67 90a39 39 0 0 0 2 3l5 5 3 1h1l3 1 70 18 7 1 6-2 42-20 2-1 1-1c1-2 0-3-1-5l-2-3-66-90c-6-7-11-10-20-10zm-37 19h9l37 50h-10zm46 62h5l11 15h-5l-6-9-1 6-9-5 6 8h-5l-11-15h6l8 6zm-77-62h15c8 0 14 3 18 9l10 13c4 7 3 10-5 10h-5l13 18h-9zm-26 1h21l5 6-11 1 10 14h11l5 7h-11l11 15h12l5 7h-21zm73 75-2 2h-9a22 22 0 0 1 -8-4l-3-3-2-3 1-3 2-2h3c3 0 6 0 10 2l-1 3-3-1-3-1-2 1v1 3l2 1a11 11 0 0 0 7 3l2-1-1-2h-4l-2-3h8zm0-14h5l20 15-6 1-3-3h-8l1 3h-5zm51 41-31-7 54-1zm14-26h-15l-11-15 15-1 2 4h-10l2 2h9l3 4h-9l1 2h10zm-37-36-23-33c-5-6-4-9 4-9h5c7-1 13 2 18 9l7 10h-9l-7-10c-2-2-3-3-6-3h-1c-3 0-3 1-2 3l23 32 6 3h2c2 0 3-1 1-3l-8-11 9-1 9 12c4 6 3 9-5 9l-5 1c-7 0-13-3-18-9zm51 30 1 3v1l-2 1-3 1a23 23 0 0 1 -10-3l1-3c2 2 5 2 7 2h1l1-1h-1l-1-1h-3a61 61 0 0 1 -6-2l-2-1-2-2h-1v-4l1-1h3a20 20 0 0 1 9 2v3a23 23 0 0 0 -6-2l-2 1 1 1h1l1 1h2a41 41 0 0 1 6 1l2 2zm-93-49-9-12c-1-2-3-3-6-3h-4l14 18h4c2 0 3-1 1-3zm22 50-2-5 6 5zm-250-184-114 3c-10 0-11 3-6 10l67 90a39 39 0 0 0 2 3l5 5 3 1h1l3 1 70 18 7 1 6-2 42-20 2-1 1-1c1-2 0-3-1-5l-2-3-66-90c-6-7-11-10-20-10zm-37 19h9l37 50h-10zm46 62h5l11 15h-5l-6-9-1 6-9-5 6 8h-5l-11-15h6l8 6zm-77-62h15c8 0 14 3 18 9l10 13c4 7 3 10-5 10h-5l13 18h-9zm-26 1h21l5 6-11 1 10 14h11l5 7h-11l11 15h12l5 7h-21zm73 75-2 2h-9a22 22 0 0 1 -8-4l-3-3-2-3 1-3 2-2h3c3 0 6 0 10 2l-1 3-3-1-3-1-2 1v1 3l2 1a11 11 0 0 0 7 3l2-1-1-2h-4l-2-3h8zm0-14h5l20 15-6 1-3-3h-8l1 3h-5zm51 41-31-7 54-1zm14-26h-15l-11-15 15-1 2 4h-10l2 2h9l3 4h-9l1 2h10zm-37-36-23-33c-5-6-4-9 4-9h5c7-1 13 2 18 9l7 10h-9l-7-10c-2-2-3-3-6-3h-1c-3 0-3 1-2 3l23 32 6 3h2c2 0 3-1 1-3l-8-11 9-1 9 12c4 6 3 9-5 9l-5 1c-7 0-13-3-18-9zm51 30 1 3v1l-2 1-3 1a23 23 0 0 1 -10-3l1-3c2 2 5 2 7 2h1l1-1h-1l-1-1h-3a61 61 0 0 1 -6-2l-2-1-2-2h-1v-4l1-1h3a20 20 0 0 1 9 2v3a23 23 0 0 0 -6-2l-2 1 1 1h1l1 1h2a41 41 0 0 1 6 1l2 2zm-93-49-9-12c-1-2-3-3-6-3h-4l14 18h4c2 0 3-1 1-3zm22 50-2-5 6 5zm-250-184-114 3c-10 0-11 3-6 10l67 90a39 39 0 0 0 2 3l5 5 3 1h1l3 1 70 18 7 1 6-2 42-20 2-1 1-1c1-2 0-3-1-5l-2-3-66-90c-6-7-11-10-20-10zm-37 19h9l37 50h-10zm46 62h5l11 15h-5l-6-9-1 6-9-5 6 8h-5l-11-15h6l8 6zm-77-62h15c8 0 14 3 18 9l10 13c4 7 3 10-5 10h-5l13 18h-9zm-26 1h21l5 6-11 1 10 14h11l5 7h-11l11 15h12l5 7h-21zm73 75-2 2h-9a22 22 0 0 1 -8-4l-3-3-2-3 1-3 2-2h3c3 0 6 0 10 2l-1 3-3-1-3-1-2 1v1 3l2 1a11 11 0 0 0 7 3l2-1-1-2h-4l-2-3h8zm0-14h5l20 15-6 1-3-3h-8l1 3h-5zm51 41-31-7 54-1zm14-26h-15l-11-15 15-1 2 4h-10l2 2h9l3 4h-9l1 2h10zm-37-36-23-33c-5-6-4-9 4-9h5c7-1 13 2 18 9l7 10h-9l-7-10c-2-2-3-3-6-3h-1c-3 0-3 1-2 3l23 32 6 3h2c2 0 3-1 1-3l-8-11 9-1 9 12c4 6 3 9-5 9l-5 1c-7 0-13-3-18-9zm51 30 1 3v1l-2 1-3 1a23 23 0 0 1 -10-3l1-3c2 2 5 2 7 2h1l1-1h-1l-1-1h-3a61 61 0 0 1 -6-2l-2-1-2-2h-1v-4l1-1h3a20 20 0 0 1 9 2v3a23 23 0 0 0 -6-2l-2 1 1 1h1l1 1h2a41 41 0 0 1 6 1l2 2zm-93-49-9-12c-1-2-3-3-6-3h-4l14 18h4c2 0 3-1 1-3zm22 50-2-5 6 5zm-250-184-114 3c-10 0-11 3-6 10l67 90 1 3h1l5 5 3 1h1l3 1 70 18 7 1 6-2 42-20 2-1 1-1c1-2 0-3-1-5l-2-3-66-90c-6-7-11-10-20-10zm-37 19h9l37 50h-10zm46 62h5l11 15h-5l-6-9-1 6-9-5 6 8h-5l-11-15h6l8 6zm-77-62h15c8 0 14 3 18 9l10 13c4 7 3 10-5 10h-5l13 18h-9zm-26 1h21l5 6-11 1 10 14h11l5 7h-11l11 15h12l5 7h-21zm73 75-2 2h-9a22 22 0 0 1 -8-4l-3-3-2-3 1-3 2-2h3c3 0 6 0 10 2l-1 3-3-1-3-1-2 1v1 3l2 1a11 11 0 0 0 7 3l2-1-1-2h-4l-2-3h8zm0-14h5l20 15-6 1-3-3h-8l1 3h-5zm51 41-31-7 54-1zm14-26h-15l-11-15 15-1 2 4h-10l2 2h9l3 4h-9l1 2h10zm-37-36-23-33c-5-6-4-9 4-9h5c7-1 13 2 18 9l7 10h-9l-7-10c-2-2-3-3-6-3h-1c-3 0-3 1-2 3l23 32 6 3h2c2 0 3-1 1-3l-8-11 9-1 9 12c4 6 3 9-5 9l-5 1c-7 0-13-3-18-9zm51 30 1 3v1l-2 1-3 1a23 23 0 0 1 -10-3l1-3c2 2 5 2 7 2h1l1-1h-1l-1-1h-3a61 61 0 0 1 -6-2l-2-1-2-2h-1v-4l1-1h3a20 20 0 0 1 9 2v3a23 23 0 0 0 -6-2l-2 1 1 1h1l1 1h2a41 41 0 0 1 6 1l2 2zm-93-49-9-12c-1-2-3-3-6-3h-4l14 18h4c2 0 3-1 1-3zm22 50-2-5 6 5zm1228 483-114 3c-10 0-11 3-6 10l67 90 1 3h1l5 5 3 1h1l3 1 70 18 7 1 6-2 42-20 2-1 1-1c1-2 0-3-1-5l-2-3-66-90c-6-7-11-10-20-10zm-37 19h9l37 50h-10zm46 62h5l11 15h-5l-6-9-1 6-9-5 6 8h-5l-11-15h6l8 6zm-77-62h15c8 0 14 3 18 9l10 13c4 7 3 10-5 10h-5l13 18h-9zm-26 1h21l5 6-11 1 10 14h11l5 7h-11l11 15h12l5 7h-21zm73 75-2 2h-9a23 23 0 0 1 -8-4l-3-3-2-3 1-3 2-2h3c3 0 6 0 10 2l-1 3-3-1-3-1-2 1v1 3l2 1a11 11 0 0 0 7 3l2-1-1-2h-4l-2-3h8zm0-14h5l20 15-6 1-3-3h-8l1 3h-5zm51 41-31-7 54-1zm14-26h-15l-11-15 15-1 2 4h-10l2 2h9l3 4h-9l1 2h10zm-37-36-23-33c-5-6-3-9 4-9h5c7-1 13 2 18 9l7 10h-9l-7-10c-2-2-3-3-6-3h-1c-3 0-3 1-2 3l23 32 6 3h2c2 0 3-1 1-3l-8-11 9-1 9 12c4 6 3 9-5 9l-5 1c-7 0-13-3-18-9zm51 30 1 3v1l-2 1-3 1a23 23 0 0 1 -10-3l1-3c2 2 5 2 7 2h1l1-1h-1l-1-1h-3a60 60 0 0 1 -6-2l-2-1-2-2h-1v-4l1-1h3a20 20 0 0 1 9 2v3a23 23 0 0 0 -6-2l-2 1 1 1h1l1 1h2a41 41 0 0 1 6 1l2 2zm-93-49-9-12c-1-2-3-3-6-3h-4l14 18h4c2 0 3-1 1-3zm22 50-2-5 6 5zm176 111-114 3c-10 0-11 3-6 10l67 90 1 3h1a17 17 0 0 0 8 6h1l3 1 70 18 7 1 6-2 42-20 2-1 1-1c1-2 0-3-1-5l-2-3-66-90c-6-7-11-10-20-10zm-37 19h9l37 50h-10zm46 62h5l11 15h-5l-6-9-1 6-9-5 6 8h-5l-11-15h6l8 6zm-77-62h15c8 0 14 3 18 9l10 13c4 7 3 10-5 10h-5l13 18h-9zm-26 1h21l5 6-11 1 10 14h11l5 7h-11l11 15h12l5 7h-21zm73 75-2 2h-9a23 23 0 0 1 -8-4l-3-3-2-3 1-3 2-2h3c3 0 6 0 10 2l-1 3-3-1-3-1-2 1v1 3l2 1a11 11 0 0 0 4 3h3l2-1-1-2h-4l-2-3h8zm0-14h5l20 15-6 1-3-3h-8l1 3h-5zm51 41-31-7 54-1zm14-26h-15l-11-15 15-1 2 4h-10l2 2h9l3 4h-9l1 2h10zm-37-36-23-33c-5-6-3-9 4-9h5c7-1 13 2 18 9l7 10h-9l-7-10c-2-2-3-3-6-3h-1c-3 0-3 1-2 3l23 32 6 3h2c2 0 3-1 1-3l-8-11 9-1 9 12c4 6 3 9-5 9l-5 1c-7 0-13-3-18-9zm51 30 1 3v1l-2 1-3 1a23 23 0 0 1 -10-3l1-3c2 2 5 2 7 2h1l1-1h-1l-1-1h-3a72 72 0 0 1 -6-2l-2-1-2-2h-1v-4l1-1h3a20 20 0 0 1 9 2v3l-4-1-2-1-2 1 1 1h1l1 1h2a43 43 0 0 1 6 1l2 2zm-93-49-9-12c-1-2-3-3-6-3h-4l14 18h4c2 0 3-1 1-3zm22 50-2-5 6 5zm-446-384-114 3c-10 0-11 3-6 10l67 90 1 3h1l5 5 3 1h1l3 1 70 18 7 1 6-2 42-20 2-1 1-1c1-2 0-3-1-5l-2-3-66-90c-6-7-11-10-20-10zm-37 19h9l37 50h-10zm46 62h5l11 15h-5l-6-9-1 6-9-5 6 8h-5l-11-15h6l8 6zm-77-62h15c8 0 14 3 18 9l10 13c4 7 3 10-5 10h-5l13 18h-9zm-26 1h21l5 6-11 1 10 14h11l5 7h-11l11 15h12l5 7h-21zm73 75-2 2h-9a23 23 0 0 1 -8-4l-3-3-2-3 1-3 2-2h3c3 0 6 0 10 2l-1 3-3-1-3-1-2 1v1 3l2 1a11 11 0 0 0 7 3l2-1-1-2h-4l-2-3h8zm0-14h5l20 15-6 1-3-3h-8l1 3h-5zm51 41-31-7 54-1zm14-26h-15l-11-15 15-1 2 4h-10l2 2h9l3 4h-9l1 2h10zm-37-36-23-33c-5-6-3-9 4-9h5c7-1 13 2 18 9l7 10h-9l-7-10c-2-2-3-3-6-3h-1c-3 0-3 1-2 3l23 32 6 3h2c2 0 3-1 1-3l-8-11 9-1 9 12c4 6 3 9-5 9l-5 1c-7 0-13-3-18-9zm51 30 1 3v1l-2 1-3 1a23 23 0 0 1 -10-3l1-3c2 2 5 2 7 2h1l1-1h-1l-1-1h-3a60 60 0 0 1 -6-2l-2-1-2-2h-1v-4l1-1h3a20 20 0 0 1 9 2v3a23 23 0 0 0 -6-2l-2 1 1 1h1l1 1h2a41 41 0 0 1 6 1l2 2zm-93-49-9-12c-1-2-3-3-6-3h-4l14 18h4c2 0 3-1 1-3zm22 50-2-5 6 5zm-250-184-114 3c-10 0-11 3-6 10l67 90a39 39 0 0 0 2 3l5 5 3 1h1l3 1 70 18 7 1 6-2 42-20 2-1 1-1c1-2 0-3-1-5l-2-3-66-90c-6-7-11-10-20-10zm-37 19h9l37 50h-10zm46 62h5l11 15h-5l-6-9-1 6-9-5 6 8h-5l-11-15h6l8 6zm-77-62h15c8 0 14 3 18 9l10 13c4 7 3 10-5 10h-5l13 18h-9zm-26 1h21l5 6-11 1 10 14h11l5 7h-11l11 15h12l5 7h-21zm73 75-2 2h-9a22 22 0 0 1 -8-4l-3-3-2-3 1-3 2-2h3c3 0 6 0 10 2l-1 3-3-1-3-1-2 1v1 3l2 1a11 11 0 0 0 7 3l2-1-1-2h-4l-2-3h8zm0-14h5l20 15-6 1-3-3h-8l1 3h-5zm51 41-31-7 54-1zm14-26h-15l-11-15 15-1 2 4h-10l2 2h9l3 4h-9l1 2h10zm-37-36-23-33c-5-6-4-9 4-9h5c7-1 13 2 18 9l7 10h-9l-7-10c-2-2-3-3-6-3h-1c-3 0-3 1-2 3l23 32 6 3h2c2 0 3-1 1-3l-8-11 9-1 9 12c4 6 3 9-5 9l-5 1c-7 0-13-3-18-9zm51 30 1 3v1l-2 1-3 1a23 23 0 0 1 -10-3l1-3c2 2 5 2 7 2h1l1-1h-1l-1-1h-3a61 61 0 0 1 -6-2l-2-1-2-2h-1v-4l1-1h3a20 20 0 0 1 9 2v3a23 23 0 0 0 -6-2l-2 1 1 1h1l1 1h2a41 41 0 0 1 6 1l2 2zm-93-49-9-12c-1-2-3-3-6-3h-4l14 18h4c2 0 3-1 1-3zm22 50-2-5 6 5zm-250-184-114 3c-10 0-11 3-6 10l67 90a39 39 0 0 0 2 3l5 5 3 1h1l3 1 70 18 7 1 6-2 42-20 2-1 1-1c1-2 0-3-1-5l-2-3-66-90c-6-7-11-10-20-10zm-37 19h9l37 50h-10zm46 62h5l11 15h-5l-6-9-1 6-9-5 6 8h-5l-11-15h6l8 6zm-77-62h15c8 0 14 3 18 9l10 13c4 7 3 10-5 10h-5l13 18h-9zm-26 1h21l5 6-11 1 10 14h11l5 7h-11l11 15h12l5 7h-21zm73 75-2 2h-9a22 22 0 0 1 -8-4l-3-3-2-3 1-3 2-2h3c3 0 6 0 10 2l-1 3-3-1-3-1-2 1v1 3l2 1a11 11 0 0 0 7 3l2-1-1-2h-4l-2-3h8zm0-14h5l20 15-6 1-3-3h-8l1 3h-5zm51 41-31-7 54-1zm14-26h-15l-11-15 15-1 2 4h-10l2 2h9l3 4h-9l1 2h10zm-37-36-23-33c-5-6-4-9 4-9h5c7-1 13 2 18 9l7 10h-9l-7-10c-2-2-3-3-6-3h-1c-3 0-3 1-2 3l23 32 6 3h2c2 0 3-1 1-3l-8-11 9-1 9 12c4 6 3 9-5 9l-5 1c-7 0-13-3-18-9zm51 30 1 3v1l-2 1-3 1a23 23 0 0 1 -10-3l1-3c2 2 5 2 7 2h1l1-1h-1l-1-1h-3a61 61 0 0 1 -6-2l-2-1-2-2h-1v-4l1-1h3a20 20 0 0 1 9 2v3a23 23 0 0 0 -6-2l-2 1 1 1h1l1 1h2a41 41 0 0 1 6 1l2 2zm-93-49-9-12c-1-2-3-3-6-3h-4l14 18h4c2 0 3-1 1-3zm22 50-2-5 6 5zm-250-184-114 3c-10 0-11 3-6 10l67 90a39 39 0 0 0 2 3l5 5 3 1h1l3 1 70 18 7 1 6-2 42-20 2-1 1-1c1-2 0-3-1-5l-2-3-66-90c-6-7-11-10-20-10zm-37 19h9l37 50h-10zm46 62h5l11 15h-5l-6-9-1 6-9-5 6 8h-5l-11-15h6l8 6zm-77-62h15c8 0 14 3 18 9l10 13c4 7 3 10-5 10h-5l13 18h-9zm-26 1h21l5 6-11 1 10 14h11l5 7h-11l11 15h12l5 7h-21zm73 75-2 2h-9a22 22 0 0 1 -8-4l-3-3-2-3 1-3 2-2h3c3 0 6 0 10 2l-1 3-3-1-3-1-2 1v1 3l2 1a11 11 0 0 0 7 3l2-1-1-2h-4l-2-3h8zm0-14h5l20 15-6 1-3-3h-8l1 3h-5zm51 41-31-7 54-1zm14-26h-15l-11-15 15-1 2 4h-10l2 2h9l3 4h-9l1 2h10zm-37-36-23-33c-5-6-4-9 4-9h5c7-1 13 2 18 9l7 10h-9l-7-10c-2-2-3-3-6-3h-1c-3 0-3 1-2 3l23 32 6 3h2c2 0 3-1 1-3l-8-11 9-1 9 12c4 6 3 9-5 9l-5 1c-7 0-13-3-18-9zm51 30 1 3v1l-2 1-3 1a23 23 0 0 1 -10-3l1-3c2 2 5 2 7 2h1l1-1h-1l-1-1h-3a61 61 0 0 1 -6-2l-2-1-2-2h-1v-4l1-1h3a20 20 0 0 1 9 2v3a23 23 0 0 0 -6-2l-2 1 1 1h1l1 1h2a41 41 0 0 1 6 1l2 2zm-93-49-9-12c-1-2-3-3-6-3h-4l14 18h4c2 0 3-1 1-3zm22 50-2-5 6 5zm-250-184-114 3c-10 0-11 3-6 10l67 90 1 3h1l5 5 3 1h1l3 1 70 18 7 1 6-2 42-20 2-1 1-1c1-2 0-3-1-5l-2-3-66-90c-6-7-11-10-20-10zm-37 19h9l37 50h-10zm46 62h5l11 15h-5l-6-9-1 6-9-5 6 8h-5l-11-15h6l8 6zm-77-62h15c8 0 14 3 18 9l10 13c4 7 3 10-5 10h-5l13 18h-9zm-26 1h21l5 6-11 1 10 14h11l5 7h-11l11 15h12l5 7h-21zm73 75-2 2h-9a22 22 0 0 1 -8-4l-3-3-2-3 1-3 2-2h3c3 0 6 0 10 2l-1 3-3-1-3-1-2 1v1 3l2 1a11 11 0 0 0 7 3l2-1-1-2h-4l-2-3h8zm0-14h5l20 15-6 1-3-3h-8l1 3h-5zm51 41-31-7 54-1zm14-26h-15l-11-15 15-1 2 4h-10l2 2h9l3 4h-9l1 2h10zm-37-36-23-33c-5-6-4-9 4-9h5c7-1 13 2 18 9l7 10h-9l-7-10c-2-2-3-3-6-3h-1c-3 0-3 1-2 3l23 32 6 3h2c2 0 3-1 1-3l-8-11 9-1 9 12c4 6 3 9-5 9l-5 1c-7 0-13-3-18-9zm51 30 1 3v1l-2 1-3 1a23 23 0 0 1 -10-3l1-3c2 2 5 2 7 2h1l1-1h-1l-1-1h-3a61 61 0 0 1 -6-2l-2-1-2-2h-1v-4l1-1h3a20 20 0 0 1 9 2v3a23 23 0 0 0 -6-2l-2 1 1 1h1l1 1h2a41 41 0 0 1 6 1l2 2zm-93-49-9-12c-1-2-3-3-6-3h-4l14 18h4c2 0 3-1 1-3zm22 50-2-5 6 5zm1228 483-114 3c-10 0-11 3-6 10l67 90 1 3h1a17 17 0 0 0 8 6h1l3 1 70 18 7 1 6-2 42-20 2-1 1-1c1-2 0-3-1-5l-2-3-66-90c-6-7-11-10-20-10zm-37 19h9l37 50h-10zm46 62h5l11 15h-5l-6-9-1 6-9-5 6 8h-5l-11-15h6l8 6zm-77-62h15c8 0 14 3 18 9l10 13c4 7 3 10-5 10h-5l13 18h-9zm-26 1h21l5 6-11 1 10 14h11l5 7h-11l11 15h12l5 7h-21zm73 75-2 2h-9a23 23 0 0 1 -8-4l-3-3-2-3 1-3 2-2h3c3 0 6 0 10 2l-1 3-3-1-3-1-2 1v1 3l2 1a11 11 0 0 0 4 3h3l2-1-1-2h-4l-2-3h8zm0-14h5l20 15-6 1-3-3h-8l1 3h-5zm51 41-31-7 54-1zm14-26h-15l-11-15 15-1 2 4h-10l2 2h9l3 4h-9l1 2h10zm-37-36-23-33c-5-6-3-9 4-9h5c7-1 13 2 18 9l7 10h-9l-7-10c-2-2-3-3-6-3h-1c-3 0-3 1-2 3l23 32 6 3h2c2 0 3-1 1-3l-8-11 9-1 9 12c4 6 3 9-5 9l-5 1c-7 0-13-3-18-9zm51 30 1 3v1l-2 1-3 1a23 23 0 0 1 -10-3l1-3c2 2 5 2 7 2h1l1-1h-1l-1-1h-3a72 72 0 0 1 -6-2l-2-1-2-2h-1v-4l1-1h3a20 20 0 0 1 9 2v3l-4-1-2-1-2 1 1 1h1l1 1h2a43 43 0 0 1 6 1l2 2zm-93-49-9-12c-1-2-3-3-6-3h-4l14 18h4c2 0 3-1 1-3zm22 50-2-5 6 5zm-283-182-114 3c-10 0-11 3-6 10l67 90a39 39 0 0 0 2 3l5 5 3 1h1l3 1 70 18 7 1 6-2 42-20 2-1 1-1c1-2 0-3-1-5l-2-3-66-90c-6-7-11-10-20-10zm-37 19h9l37 50h-10zm46 62h5l11 15h-5l-6-9-1 6-9-5 6 8h-5l-11-15h6l8 6zm-77-62h15c8 0 14 3 18 9l10 13c4 7 3 10-5 10h-5l13 18h-9zm-26 1h21l5 6-11 1 10 14h11l5 7h-11l11 15h12l5 7h-21zm73 75-2 2h-9a22 22 0 0 1 -8-4l-3-3-2-3 1-3 2-2h3c3 0 6 0 10 2l-1 3-3-1-3-1-2 1v1 3l2 1a11 11 0 0 0 7 3l2-1-1-2h-4l-2-3h8zm0-14h5l20 15-6 1-3-3h-8l1 3h-5zm51 41-31-7 54-1zm14-26h-15l-11-15 15-1 2 4h-10l2 2h9l3 4h-9l1 2h10zm-37-36-23-33c-5-6-4-9 4-9h5c7-1 13 2 18 9l7 10h-9l-7-10c-2-2-3-3-6-3h-1c-3 0-3 1-2 3l23 32 6 3h2c2 0 3-1 1-3l-8-11 9-1 9 12c4 6 3 9-5 9l-5 1c-7 0-13-3-18-9zm51 30 1 3v1l-2 1-3 1a23 23 0 0 1 -10-3l1-3c2 2 5 2 7 2h1l1-1h-1l-1-1h-3a61 61 0 0 1 -6-2l-2-1-2-2h-1v-4l1-1h3a20 20 0 0 1 9 2v3a23 23 0 0 0 -6-2l-2 1 1 1h1l1 1h2a41 41 0 0 1 6 1l2 2zm-93-49-9-12c-1-2-3-3-6-3h-4l14 18h4c2 0 3-1 1-3zm22 50-2-5 6 5zm-250-184-114 3c-10 0-11 3-6 10l67 90a39 39 0 0 0 2 3l5 5 3 1h1l3 1 70 18 7 1 6-2 42-20 2-1 1-1c1-2 0-3-1-5l-2-3-66-90c-6-7-11-10-20-10zm-37 19h9l37 50h-10zm46 62h5l11 15h-5l-6-9-1 6-9-5 6 8h-5l-11-15h6l8 6zm-77-62h15c8 0 14 3 18 9l10 13c4 7 3 10-5 10h-5l13 18h-9zm-26 1h21l5 6-11 1 10 14h11l5 7h-11l11 15h12l5 7h-21zm73 75-2 2h-9a22 22 0 0 1 -8-4l-3-3-2-3 1-3 2-2h3c3 0 6 0 10 2l-1 3-3-1-3-1-2 1v1 3l2 1a11 11 0 0 0 7 3l2-1-1-2h-4l-2-3h8zm0-14h5l20 15-6 1-3-3h-8l1 3h-5zm51 41-31-7 54-1zm14-26h-15l-11-15 15-1 2 4h-10l2 2h9l3 4h-9l1 2h10zm-37-36-23-33c-5-6-4-9 4-9h5c7-1 13 2 18 9l7 10h-9l-7-10c-2-2-3-3-6-3h-1c-3 0-3 1-2 3l23 32 6 3h2c2 0 3-1 1-3l-8-11 9-1 9 12c4 6 3 9-5 9l-5 1c-7 0-13-3-18-9zm51 30 1 3v1l-2 1-3 1a23 23 0 0 1 -10-3l1-3c2 2 5 2 7 2h1l1-1h-1l-1-1h-3a61 61 0 0 1 -6-2l-2-1-2-2h-1v-4l1-1h3a20 20 0 0 1 9 2v3a23 23 0 0 0 -6-2l-2 1 1 1h1l1 1h2a41 41 0 0 1 6 1l2 2zm-93-49-9-12c-1-2-3-3-6-3h-4l14 18h4c2 0 3-1 1-3zm22 50-2-5 6 5zm-250-184-114 3c-10 0-11 3-6 10l67 90a39 39 0 0 0 2 3l5 5 3 1h1l3 1 70 18 7 1 6-2 42-20 2-1 1-1c1-2 0-3-1-5l-2-3-66-90c-6-7-11-10-20-10zm-37 19h9l37 50h-10zm46 62h5l11 15h-5l-6-9-1 6-9-5 6 8h-5l-11-15h6l8 6zm-77-62h15c8 0 14 3 18 9l10 13c4 7 3 10-5 10h-5l13 18h-9zm-26 1h21l5 6-11 1 10 14h11l5 7h-11l11 15h12l5 7h-21zm73 75-2 2h-9a22 22 0 0 1 -8-4l-3-3-2-3 1-3 2-2h3c3 0 6 0 10 2l-1 3-3-1-3-1-2 1v1 3l2 1a11 11 0 0 0 7 3l2-1-1-2h-4l-2-3h8zm0-14h5l20 15-6 1-3-3h-8l1 3h-5zm51 41-31-7 54-1zm14-26h-15l-11-15 15-1 2 4h-10l2 2h9l3 4h-9l1 2h10zm-37-36-23-33c-5-6-4-9 4-9h5c7-1 13 2 18 9l7 10h-9l-7-10c-2-2-3-3-6-3h-1c-3 0-3 1-2 3l23 32 6 3h2c2 0 3-1 1-3l-8-11 9-1 9 12c4 6 3 9-5 9l-5 1c-7 0-13-3-18-9zm51 30 1 3v1l-2 1-3 1a23 23 0 0 1 -10-3l1-3c2 2 5 2 7 2h1l1-1h-1l-1-1h-3a61 61 0 0 1 -6-2l-2-1-2-2h-1v-4l1-1h3a20 20 0 0 1 9 2v3a23 23 0 0 0 -6-2l-2 1 1 1h1l1 1h2a41 41 0 0 1 6 1l2 2zm-93-49-9-12c-1-2-3-3-6-3h-4l14 18h4c2 0 3-1 1-3zm22 50-2-5 6 5zm-250-184-114 3c-10 0-11 3-6 10l67 90 1 3h1l5 5 3 1h1l3 1 70 18 7 1 6-2 42-20 2-1 1-1c1-2 0-3-1-5l-2-3-66-90c-6-7-11-10-20-10zm-37 19h9l37 50h-10zm46 62h5l11 15h-5l-6-9-1 6-9-5 6 8h-5l-11-15h6l8 6zm-77-62h15c8 0 14 3 18 9l10 13c4 7 3 10-5 10h-5l13 18h-9zm-26 1h21l5 6-11 1 10 14h11l5 7h-11l11 15h12l5 7h-21zm73 75-2 2h-9a22 22 0 0 1 -8-4l-3-3-2-3 1-3 2-2h3c3 0 6 0 10 2l-1 3-3-1-3-1-2 1v1 3l2 1a11 11 0 0 0 7 3l2-1-1-2h-4l-2-3h8zm0-14h5l20 15-6 1-3-3h-8l1 3h-5zm51 41-31-7 54-1zm14-26h-15l-11-15 15-1 2 4h-10l2 2h9l3 4h-9l1 2h10zm-37-36-23-33c-5-6-4-9 4-9h5c7-1 13 2 18 9l7 10h-9l-7-10c-2-2-3-3-6-3h-1c-3 0-3 1-2 3l23 32 6 3h2c2 0 3-1 1-3l-8-11 9-1 9 12c4 6 3 9-5 9l-5 1c-7 0-13-3-18-9zm51 30 1 3v1l-2 1-3 1a23 23 0 0 1 -10-3l1-3c2 2 5 2 7 2h1l1-1h-1l-1-1h-3a61 61 0 0 1 -6-2l-2-1-2-2h-1v-4l1-1h3a20 20 0 0 1 9 2v3a23 23 0 0 0 -6-2l-2 1 1 1h1l1 1h2a41 41 0 0 1 6 1l2 2zm-93-49-9-12c-1-2-3-3-6-3h-4l14 18h4c2 0 3-1 1-3zm22 50-2-5 6 5zm965 390-114 3c-10 0-11 3-6 10l67 90 1 3h1a17 17 0 0 0 8 6h1l3 1 70 18 7 1 6-2 42-20 2-1 1-1c1-2 0-3-1-5l-2-3-66-90c-6-7-11-10-20-10zm-37 19h9l37 50h-10zm46 62h5l11 15h-5l-6-9-1 6-9-5 6 8h-5l-11-15h6l8 6zm-77-62h15c8 0 14 3 18 9l10 13c4 7 3 10-5 10h-5l13 18h-9zm-26 1h21l5 6-11 1 10 14h11l5 7h-11l11 15h12l5 7h-21zm73 75-2 2h-9a23 23 0 0 1 -8-4l-3-3-2-3 1-3 2-2h3c3 0 6 0 10 2l-1 3-3-1-3-1-2 1v1 3l2 1a11 11 0 0 0 4 3h3l2-1-1-2h-4l-2-3h8zm0-14h5l20 15-6 1-3-3h-8l1 3h-5zm51 41-31-7 54-1zm14-26h-15l-11-15 15-1 2 4h-10l2 2h9l3 4h-9l1 2h10zm-37-36-23-33c-5-6-3-9 4-9h5c7-1 13 2 18 9l7 10h-9l-7-10c-2-2-3-3-6-3h-1c-3 0-3 1-2 3l23 32 6 3h2c2 0 3-1 1-3l-8-11 9-1 9 12c4 6 3 9-5 9l-5 1c-7 0-13-3-18-9zm51 30 1 3v1l-2 1-3 1a23 23 0 0 1 -10-3l1-3c2 2 5 2 7 2h1l1-1h-1l-1-1h-3a72 72 0 0 1 -6-2l-2-1-2-2h-1v-4l1-1h3a20 20 0 0 1 9 2v3l-4-1-2-1-2 1 1 1h1l1 1h2a43 43 0 0 1 6 1l2 2zm-93-49-9-12c-1-2-3-3-6-3h-4l14 18h4c2 0 3-1 1-3zm22 50-2-5 6 5zm-283-182-114 3c-10 0-11 3-6 10l67 90a40 40 0 0 0 2 3 17 17 0 0 0 8 6h1l3 1 70 18 7 1 6-2 42-20 2-1 1-1c1-2 0-3-1-5l-2-3-66-90c-6-7-11-10-20-10zm-37 19h9l37 50h-10zm46 62h5l11 15h-5l-6-9-1 6-9-5 6 8h-5l-11-15h6l8 6zm-77-62h15c8 0 14 3 18 9l10 13c4 7 3 10-5 10h-5l13 18h-9zm-26 1h21l5 6-11 1 10 14h11l5 7h-11l11 15h12l5 7h-21zm73 75-2 2h-9a23 23 0 0 1 -8-4l-3-3-2-3 1-3 2-2h3c3 0 6 0 10 2l-1 3-3-1-3-1-2 1v1 3l2 1a11 11 0 0 0 4 3h3l2-1-1-2h-4l-2-3h8zm0-14h5l20 15-6 1-3-3h-8l1 3h-5zm51 41-31-7 54-1zm14-26h-15l-11-15 15-1 2 4h-10l2 2h9l3 4h-9l1 2h10zm-37-36-23-33c-5-6-4-9 4-9h5c7-1 13 2 18 9l7 10h-9l-7-10c-2-2-3-3-6-3h-1c-3 0-3 1-2 3l23 32 6 3h2c2 0 3-1 1-3l-8-11 9-1 9 12c4 6 3 9-5 9l-5 1c-7 0-13-3-18-9zm51 30 1 3v1l-2 1-3 1a23 23 0 0 1 -10-3l1-3c2 2 5 2 7 2h1l1-1h-1l-1-1h-3a73 73 0 0 1 -6-2l-2-1-2-2h-1v-4l1-1h3a20 20 0 0 1 9 2v3l-4-1-2-1-2 1 1 1h1l1 1h2a43 43 0 0 1 6 1l2 2zm-93-49-9-12c-1-2-3-3-6-3h-4l14 18h4c2 0 3-1 1-3zm22 50-2-5 6 5zm-250-184-114 3c-10 0-11 3-6 10l67 90a40 40 0 0 0 2 3l5 5 3 1h1l3 1 70 18 7 1 6-2 42-20 2-1 1-1c1-2 0-3-1-5l-2-3-66-90c-6-7-11-10-20-10zm-37 19h9l37 50h-10zm46 62h5l11 15h-5l-6-9-1 6-9-5 6 8h-5l-11-15h6l8 6zm-77-62h15c8 0 14 3 18 9l10 13c4 7 3 10-5 10h-5l13 18h-9zm-26 1h21l5 6-11 1 10 14h11l5 7h-11l11 15h12l5 7h-21zm73 75-2 2h-9a22 22 0 0 1 -8-4l-3-3-2-3 1-3 2-2h3c3 0 6 0 10 2l-1 3-3-1-3-1-2 1v1 3l2 1a11 11 0 0 0 7 3l2-1-1-2h-4l-2-3h8zm0-14h5l20 15-6 1-3-3h-8l1 3h-5zm51 41-31-7 54-1zm14-26h-15l-11-15 15-1 2 4h-10l2 2h9l3 4h-9l1 2h10zm-37-36-23-33c-5-6-4-9 4-9h5c7-1 13 2 18 9l7 10h-9l-7-10c-2-2-3-3-6-3h-1c-3 0-3 1-2 3l23 32 6 3h2c2 0 3-1 1-3l-8-11 9-1 9 12c4 6 3 9-5 9l-5 1c-7 0-13-3-18-9zm51 30 1 3v1l-2 1-3 1a23 23 0 0 1 -10-3l1-3c2 2 5 2 7 2h1l1-1h-1l-1-1h-3a61 61 0 0 1 -6-2l-2-1-2-2h-1v-4l1-1h3a20 20 0 0 1 9 2v3a23 23 0 0 0 -6-2l-2 1 1 1h1l1 1h2a41 41 0 0 1 6 1l2 2zm-93-49-9-12c-1-2-3-3-6-3h-4l14 18h4c2 0 3-1 1-3zm22 50-2-5 6 5zm-250-184-114 3c-10 0-11 3-6 10l67 90a39 39 0 0 0 2 3l5 5 3 1h1l3 1 70 18 7 1 6-2 42-20 2-1 1-1c1-2 0-3-1-5l-2-3-66-90c-6-7-11-10-20-10zm-37 19h9l37 50h-10zm46 62h5l11 15h-5l-6-9-1 6-9-5 6 8h-5l-11-15h6l8 6zm-77-62h15c8 0 14 3 18 9l10 13c4 7 3 10-5 10h-5l13 18h-9zm-26 1h21l5 6-11 1 10 14h11l5 7h-11l11 15h12l5 7h-21zm73 75-2 2h-9a22 22 0 0 1 -8-4l-3-3-2-3 1-3 2-2h3c3 0 6 0 10 2l-1 3-3-1-3-1-2 1v1 3l2 1a11 11 0 0 0 7 3l2-1-1-2h-4l-2-3h8zm0-14h5l20 15-6 1-3-3h-8l1 3h-5zm51 41-31-7 54-1zm14-26h-15l-11-15 15-1 2 4h-10l2 2h9l3 4h-9l1 2h10zm-37-36-23-33c-5-6-4-9 4-9h5c7-1 13 2 18 9l7 10h-9l-7-10c-2-2-3-3-6-3h-1c-3 0-3 1-2 3l23 32 6 3h2c2 0 3-1 1-3l-8-11 9-1 9 12c4 6 3 9-5 9l-5 1c-7 0-13-3-18-9zm51 30 1 3v1l-2 1-3 1a23 23 0 0 1 -10-3l1-3c2 2 5 2 7 2h1l1-1h-1l-1-1h-3a61 61 0 0 1 -6-2l-2-1-2-2h-1v-4l1-1h3a20 20 0 0 1 9 2v3a23 23 0 0 0 -6-2l-2 1 1 1h1l1 1h2a41 41 0 0 1 6 1l2 2zm-93-49-9-12c-1-2-3-3-6-3h-4l14 18h4c2 0 3-1 1-3zm22 50-2-5 6 5zm-250-184-114 3c-10 0-11 3-6 10l67 90 1 3h1l5 5 3 1h1l3 1 70 18 7 1 6-2 42-20 2-1 1-1c1-2 0-3-1-5l-2-3-66-90c-6-7-11-10-20-10zm-37 19h9l37 50h-10zm46 62h5l11 15h-5l-6-9-1 6-9-5 6 8h-5l-11-15h6l8 6zm-77-62h15c8 0 14 3 18 9l10 13c4 7 3 10-5 10h-5l13 18h-9zm-26 1h21l5 6-11 1 10 14h11l5 7h-11l11 15h12l5 7h-21zm73 75-2 2h-9a22 22 0 0 1 -8-4l-3-3-2-3 1-3 2-2h3c3 0 6 0 10 2l-1 3-3-1-3-1-2 1v1 3l2 1a11 11 0 0 0 7 3l2-1-1-2h-4l-2-3h8zm0-14h5l20 15-6 1-3-3h-8l1 3h-5zm51 41-31-7 54-1zm14-26h-15l-11-15 15-1 2 4h-10l2 2h9l3 4h-9l1 2h10zm-37-36-23-33c-5-6-4-9 4-9h5c7-1 13 2 18 9l7 10h-9l-7-10c-2-2-3-3-6-3h-1c-3 0-3 1-2 3l23 32 6 3h2c2 0 3-1 1-3l-8-11 9-1 9 12c4 6 3 9-5 9l-5 1c-7 0-13-3-18-9zm51 30 1 3v1l-2 1-3 1a23 23 0 0 1 -10-3l1-3c2 2 5 2 7 2h1l1-1h-1l-1-1h-3a61 61 0 0 1 -6-2l-2-1-2-2h-1v-4l1-1h3a20 20 0 0 1 9 2v3a23 23 0 0 0 -6-2l-2 1 1 1h1l1 1h2a41 41 0 0 1 6 1l2 2zm-93-49-9-12c-1-2-3-3-6-3h-4l14 18h4c2 0 3-1 1-3zm22 50-2-5 6 5zm1328-252-114 3c-10 0-11 3-6 10l67 90 1 3h1l5 5 3 1h1l3 1 70 18 7 1 6-2 42-20 2-1 1-1c1-2 0-3-1-5l-2-3-66-90c-6-7-11-10-20-10zm-37 19h9l37 50h-10zm46 62h5l11 15h-5l-6-9-1 6-9-5 6 8h-5l-11-15h6l8 6zm-77-62h15c8 0 14 3 18 9l10 13c4 7 3 10-5 10h-5l13 18h-9zm-26 1h21l5 6-11 1 10 14h11l5 7h-11l11 15h12l5 7h-21zm73 75-2 2h-9a23 23 0 0 1 -8-4l-3-3-2-3 1-3 2-2h3c3 0 6 0 10 2l-1 3-3-1-3-1-2 1v1 3l2 1a11 11 0 0 0 7 3l2-1-1-2h-4l-2-3h8zm0-14h5l20 15-6 1-3-3h-8l1 3h-5zm51 41-31-7 54-1zm14-26h-15l-11-15 15-1 2 4h-10l2 2h9l3 4h-9l1 2h10zm-37-36-23-33c-5-6-3-9 4-9h5c7-1 13 2 18 9l7 10h-9l-7-10c-2-2-3-3-6-3h-1c-3 0-3 1-2 3l23 32 6 3h2c2 0 3-1 1-3l-8-11 9-1 9 12c4 6 3 9-5 9l-5 1c-7 0-13-3-18-9zm51 30 1 3v1l-2 1-3 1a23 23 0 0 1 -10-3l1-3c2 2 5 2 7 2h1l1-1h-1l-1-1h-3a60 60 0 0 1 -6-2l-2-1-2-2h-1v-4l1-1h3a20 20 0 0 1 9 2v3a23 23 0 0 0 -6-2l-2 1 1 1h1l1 1h2a41 41 0 0 1 6 1l2 2zm-93-49-9-12c-1-2-3-3-6-3h-4l14 18h4c2 0 3-1 1-3zm22 50-2-5 6 5zm-250-184-114 3c-10 0-11 3-6 10l67 90a39 39 0 0 0 2 3l5 5 3 1h1l3 1 70 18 7 1 6-2 42-20 2-1 1-1c1-2 0-3-1-5l-2-3-66-90c-6-7-11-10-20-10zm-37 19h9l37 50h-10zm46 62h5l11 15h-5l-6-9-1 6-9-5 6 8h-5l-11-15h6l8 6zm-77-62h15c8 0 14 3 18 9l10 13c4 7 3 10-5 10h-5l13 18h-9zm-26 1h21l5 6-11 1 10 14h11l5 7h-11l11 15h12l5 7h-21zm73 75-2 2h-9a23 23 0 0 1 -8-4l-3-3-2-3 1-3 2-2h3c3 0 6 0 10 2l-1 3-3-1-3-1-2 1v1 3l2 1a11 11 0 0 0 7 3l2-1-1-2h-4l-2-3h8zm0-14h5l20 15-6 1-3-3h-8l1 3h-5zm51 41-31-7 54-1zm14-26h-15l-11-15 15-1 2 4h-10l2 2h9l3 4h-9l1 2h10zm-37-36-23-33c-5-6-3-9 4-9h5c7-1 13 2 18 9l7 10h-9l-7-10c-2-2-3-3-6-3h-1c-3 0-3 1-2 3l23 32 6 3h2c2 0 3-1 1-3l-8-11 9-1 9 12c4 6 3 9-5 9l-5 1c-7 0-13-3-18-9zm51 30 1 3v1l-2 1-3 1a23 23 0 0 1 -10-3l1-3c2 2 5 2 7 2h1l1-1h-1l-1-1h-3a60 60 0 0 1 -6-2l-2-1-2-2h-1v-4l1-1h3a20 20 0 0 1 9 2v3a23 23 0 0 0 -6-2l-2 1 1 1h1l1 1h2a41 41 0 0 1 6 1l2 2zm-93-49-9-12c-1-2-3-3-6-3h-4l14 18h4c2 0 3-1 1-3zm22 50-2-5 6 5zm-250-184-114 3c-10 0-11 3-6 10l67 90a39 39 0 0 0 2 3l5 5 3 1h1l3 1 70 18 7 1 6-2 42-20 2-1 1-1c1-2 0-3-1-5l-2-3-66-90c-6-7-11-10-20-10zm-37 19h9l37 50h-10zm46 62h5l11 15h-5l-6-9-1 6-9-5 6 8h-5l-11-15h6l8 6zm-77-62h15c8 0 14 3 18 9l10 13c4 7 3 10-5 10h-5l13 18h-9zm-26 1h21l5 6-11 1 10 14h11l5 7h-11l11 15h12l5 7h-21zm73 75-2 2h-9a22 22 0 0 1 -8-4l-3-3-2-3 1-3 2-2h3c3 0 6 0 10 2l-1 3-3-1-3-1-2 1v1 3l2 1a11 11 0 0 0 7 3l2-1-1-2h-4l-2-3h8zm0-14h5l20 15-6 1-3-3h-8l1 3h-5zm51 41-31-7 54-1zm14-26h-15l-11-15 15-1 2 4h-10l2 2h9l3 4h-9l1 2h10zm-37-36-23-33c-5-6-4-9 4-9h5c7-1 13 2 18 9l7 10h-9l-7-10c-2-2-3-3-6-3h-1c-3 0-3 1-2 3l23 32 6 3h2c2 0 3-1 1-3l-8-11 9-1 9 12c4 6 3 9-5 9l-5 1c-7 0-13-3-18-9zm51 30 1 3v1l-2 1-3 1a23 23 0 0 1 -10-3l1-3c2 2 5 2 7 2h1l1-1h-1l-1-1h-3a61 61 0 0 1 -6-2l-2-1-2-2h-1v-4l1-1h3a20 20 0 0 1 9 2v3a23 23 0 0 0 -6-2l-2 1 1 1h1l1 1h2a41 41 0 0 1 6 1l2 2zm-93-49-9-12c-1-2-3-3-6-3h-4l14 18h4c2 0 3-1 1-3zm22 50-2-5 6 5zm-250-184-114 3c-10 0-11 3-6 10l67 90a39 39 0 0 0 2 3l5 5 3 1h1l3 1 70 18 7 1 6-2 42-20 2-1 1-1c1-2 0-3-1-5l-2-3-66-90c-6-7-11-10-20-10zm-37 19h9l37 50h-10zm46 62h5l11 15h-5l-6-9-1 6-9-5 6 8h-5l-11-15h6l8 6zm-77-62h15c8 0 14 3 18 9l10 13c4 7 3 10-5 10h-5l13 18h-9zm-26 1h21l5 6-11 1 10 14h11l5 7h-11l11 15h12l5 7h-21zm73 75-2 2h-9a22 22 0 0 1 -8-4l-3-3-2-3 1-3 2-2h3c3 0 6 0 10 2l-1 3-3-1-3-1-2 1v1 3l2 1a11 11 0 0 0 7 3l2-1-1-2h-4l-2-3h8zm0-14h5l20 15-6 1-3-3h-8l1 3h-5zm51 41-31-7 54-1zm14-26h-15l-11-15 15-1 2 4h-10l2 2h9l3 4h-9l1 2h10zm-37-36-23-33c-5-6-4-9 4-9h5c7-1 13 2 18 9l7 10h-9l-7-10c-2-2-3-3-6-3h-1c-3 0-3 1-2 3l23 32 6 3h2c2 0 3-1 1-3l-8-11 9-1 9 12c4 6 3 9-5 9l-5 1c-7 0-13-3-18-9zm51 30 1 3v1l-2 1-3 1a23 23 0 0 1 -10-3l1-3c2 2 5 2 7 2h1l1-1h-1l-1-1h-3a61 61 0 0 1 -6-2l-2-1-2-2h-1v-4l1-1h3a20 20 0 0 1 9 2v3a23 23 0 0 0 -6-2l-2 1 1 1h1l1 1h2a41 41 0 0 1 6 1l2 2zm-93-49-9-12c-1-2-3-3-6-3h-4l14 18h4c2 0 3-1 1-3zm22 50-2-5 6 5zm-250-184-114 3c-10 0-11 3-6 10l67 90a39 39 0 0 0 2 3l5 5 3 1h1l3 1 70 18 7 1 6-2 42-20 2-1 1-1c1-2 0-3-1-5l-2-3-66-90c-6-7-11-10-20-10zm-37 19h9l37 50h-10zm46 62h5l11 15h-5l-6-9-1 6-9-5 6 8h-5l-11-15h6l8 6zm-77-62h15c8 0 14 3 18 9l10 13c4 7 3 10-5 10h-5l13 18h-9zm-26 1h21l5 6-11 1 10 14h11l5 7h-11l11 15h12l5 7h-21zm73 75-2 2h-9a22 22 0 0 1 -8-4l-3-3-2-3 1-3 2-2h3c3 0 6 0 10 2l-1 3-3-1-3-1-2 1v1 3l2 1a11 11 0 0 0 7 3l2-1-1-2h-4l-2-3h8zm0-14h5l20 15-6 1-3-3h-8l1 3h-5zm51 41-31-7 54-1zm14-26h-15l-11-15 15-1 2 4h-10l2 2h9l3 4h-9l1 2h10zm-37-36-23-33c-5-6-4-9 4-9h5c7-1 13 2 18 9l7 10h-9l-7-10c-2-2-3-3-6-3h-1c-3 0-3 1-2 3l23 32 6 3h2c2 0 3-1 1-3l-8-11 9-1 9 12c4 6 3 9-5 9l-5 1c-7 0-13-3-18-9zm51 30 1 3v1l-2 1-3 1a23 23 0 0 1 -10-3l1-3c2 2 5 2 7 2h1l1-1h-1l-1-1h-3a61 61 0 0 1 -6-2l-2-1-2-2h-1v-4l1-1h3a20 20 0 0 1 9 2v3a23 23 0 0 0 -6-2l-2 1 1 1h1l1 1h2a41 41 0 0 1 6 1l2 2zm-93-49-9-12c-1-2-3-3-6-3h-4l14 18h4c2 0 3-1 1-3zm22 50-2-5 6 5zm1228 483-114 3c-10 0-11 3-6 10l67 90 1 3h1l5 5 3 1h1l3 1 70 18 7 1 6-2 42-20 2-1 1-1c1-2 0-3-1-5l-2-3-66-90c-6-7-11-10-20-10zm-37 19h9l37 50h-10zm46 62h5l11 15h-5l-6-9-1 6-9-5 6 8h-5l-11-15h6l8 6zm-77-62h15c8 0 14 3 18 9l10 13c4 7 3 10-5 10h-5l13 18h-9zm-26 1h21l5 6-11 1 10 14h11l5 7h-11l11 15h12l5 7h-21zm73 75-2 2h-9a23 23 0 0 1 -8-4l-3-3-2-3 1-3 2-2h3c3 0 6 0 10 2l-1 3-3-1-3-1-2 1v1 3l2 1a11 11 0 0 0 7 3l2-1-1-2h-4l-2-3h8zm0-14h5l20 15-6 1-3-3h-8l1 3h-5zm51 41-31-7 54-1zm14-26h-15l-11-15 15-1 2 4h-10l2 2h9l3 4h-9l1 2h10zm-37-36-23-33c-5-6-3-9 4-9h5c7-1 13 2 18 9l7 10h-9l-7-10c-2-2-3-3-6-3h-1c-3 0-3 1-2 3l23 32 6 3h2c2 0 3-1 1-3l-8-11 9-1 9 12c4 6 3 9-5 9l-5 1c-7 0-13-3-18-9zm51 30 1 3v1l-2 1-3 1a23 23 0 0 1 -10-3l1-3c2 2 5 2 7 2h1l1-1h-1l-1-1h-3a60 60 0 0 1 -6-2l-2-1-2-2h-1v-4l1-1h3a20 20 0 0 1 9 2v3a23 23 0 0 0 -6-2l-2 1 1 1h1l1 1h2a41 41 0 0 1 6 1l2 2zm-93-49-9-12c-1-2-3-3-6-3h-4l14 18h4c2 0 3-1 1-3zm22 50-2-5 6 5zm176 111-114 3c-10 0-11 3-6 10l67 90 1 3h1a17 17 0 0 0 8 6h1l3 1 70 18 7 1 6-2 42-20 2-1 1-1c1-2 0-3-1-5l-2-3-66-90c-6-7-11-10-20-10zm-37 19h9l37 50h-10zm46 62h5l11 15h-5l-6-9-1 6-9-5 6 8h-5l-11-15h6l8 6zm-77-62h15c8 0 14 3 18 9l10 13c4 7 3 10-5 10h-5l13 18h-9zm-26 1h21l5 6-11 1 10 14h11l5 7h-11l11 15h12l5 7h-21zm73 75-2 2h-9a23 23 0 0 1 -8-4l-3-3-2-3 1-3 2-2h3c3 0 6 0 10 2l-1 3-3-1-3-1-2 1v1 3l2 1a11 11 0 0 0 4 3h3l2-1-1-2h-4l-2-3h8zm0-14h5l20 15-6 1-3-3h-8l1 3h-5zm51 41-31-7 54-1zm14-26h-15l-11-15 15-1 2 4h-10l2 2h9l3 4h-9l1 2h10zm-37-36-23-33c-5-6-3-9 4-9h5c7-1 13 2 18 9l7 10h-9l-7-10c-2-2-3-3-6-3h-1c-3 0-3 1-2 3l23 32 6 3h2c2 0 3-1 1-3l-8-11 9-1 9 12c4 6 3 9-5 9l-5 1c-7 0-13-3-18-9zm51 30 1 3v1l-2 1-3 1a23 23 0 0 1 -10-3l1-3c2 2 5 2 7 2h1l1-1h-1l-1-1h-3a72 72 0 0 1 -6-2l-2-1-2-2h-1v-4l1-1h3a20 20 0 0 1 9 2v3l-4-1-2-1-2 1 1 1h1l1 1h2a43 43 0 0 1 6 1l2 2zm-93-49-9-12c-1-2-3-3-6-3h-4l14 18h4c2 0 3-1 1-3zm22 50-2-5 6 5zm-195-596-114 3c-10 0-11 3-6 10l67 90 1 3h1l5 5 3 1h1l3 1 70 18 7 1 6-2 42-20 2-1 1-1c1-2 0-3-1-5l-2-3-66-90c-6-7-11-10-20-10zm-37 19h9l37 50h-10zm46 62h5l11 15h-5l-6-9-1 6-9-5 6 8h-5l-11-15h6l8 6zm-77-62h15c8 0 14 3 18 9l10 13c4 7 3 10-5 10h-5l13 18h-9zm-26 1h21l5 6-11 1 10 14h11l5 7h-11l11 15h12l5 7h-21zm73 75-2 2h-9a23 23 0 0 1 -8-4l-3-3-2-3 1-3 2-2h3c3 0 6 0 10 2l-1 3-3-1-3-1-2 1v1 3l2 1a11 11 0 0 0 7 3l2-1-1-2h-4l-2-3h8zm0-14h5l20 15-6 1-3-3h-8l1 3h-5zm51 41-31-7 54-1zm14-26h-15l-11-15 15-1 2 4h-10l2 2h9l3 4h-9l1 2h10zm-37-36-23-33c-5-6-3-9 4-9h5c7-1 13 2 18 9l7 10h-9l-7-10c-2-2-3-3-6-3h-1c-3 0-3 1-2 3l23 32 6 3h2c2 0 3-1 1-3l-8-11 9-1 9 12c4 6 3 9-5 9l-5 1c-7 0-13-3-18-9zm51 30 1 3v1l-2 1-3 1a23 23 0 0 1 -10-3l1-3c2 2 5 2 7 2h1l1-1h-1l-1-1h-3a60 60 0 0 1 -6-2l-2-1-2-2h-1v-4l1-1h3a20 20 0 0 1 9 2v3a23 23 0 0 0 -6-2l-2 1 1 1h1l1 1h2a41 41 0 0 1 6 1l2 2zm-93-49-9-12c-1-2-3-3-6-3h-4l14 18h4c2 0 3-1 1-3zm22 50-2-5 6 5zm-250-184-114 3c-10 0-11 3-6 10l67 90a43 43 0 0 0 2 3 17 17 0 0 0 8 6h1l3 1 70 18 7 1 6-2 42-20 2-1 1-1c1-2 0-3-1-5l-2-3-66-90c-6-7-11-10-20-10zm-37 19h9l37 50h-10zm46 62h5l11 15h-5l-6-9-1 6-9-5 6 8h-5l-11-15h6l8 6zm-77-62h15c8 0 14 3 18 9l10 13c4 7 3 10-5 10h-5l13 18h-9zm-26 1h21l5 6-11 1 10 14h11l5 7h-11l11 15h12l5 7h-21zm73 75-2 2h-9a23 23 0 0 1 -8-4l-3-3-2-3 1-3 2-2h3c3 0 6 0 10 2l-1 3-3-1-3-1-2 1v1 3l2 1a11 11 0 0 0 7 3l2-1-1-2h-4l-2-3h8zm0-14h5l20 15-6 1-3-3h-8l1 3h-5zm51 41-31-7 54-1zm14-26h-15l-11-15 15-1 2 4h-10l2 2h9l3 4h-9l1 2h10zm-37-36-23-33c-5-6-3-9 4-9h5c7-1 13 2 18 9l7 10h-9l-7-10c-2-2-3-3-6-3h-1c-3 0-3 1-2 3l23 32 6 3h2c2 0 3-1 1-3l-8-11 9-1 9 12c4 6 3 9-5 9l-5 1c-7 0-13-3-18-9zm51 30 1 3v1l-2 1-3 1a23 23 0 0 1 -10-3l1-3c2 2 5 2 7 2h1l1-1h-1l-1-1h-3a60 60 0 0 1 -6-2l-2-1-2-2h-1v-4l1-1h3a20 20 0 0 1 9 2v3a23 23 0 0 0 -6-2l-2 1 1 1h1l1 1h2a41 41 0 0 1 6 1l2 2zm-93-49-9-12c-1-2-3-3-6-3h-4l14 18h4c2 0 3-1 1-3zm22 50-2-5 6 5zm-250-184-114 3c-10 0-11 3-6 10l67 90a39 39 0 0 0 2 3l5 5 3 1h1l3 1 70 18 7 1 6-2 42-20 2-1 1-1c1-2 0-3-1-5l-2-3-66-90c-6-7-11-10-20-10zm-37 19h9l37 50h-10zm46 62h5l11 15h-5l-6-9-1 6-9-5 6 8h-5l-11-15h6l8 6zm-77-62h15c8 0 14 3 18 9l10 13c4 7 3 10-5 10h-5l13 18h-9zm-26 1h21l5 6-11 1 10 14h11l5 7h-11l11 15h12l5 7h-21zm73 75-2 2h-9a22 22 0 0 1 -8-4l-3-3-2-3 1-3 2-2h3c3 0 6 0 10 2l-1 3-3-1-3-1-2 1v1 3l2 1a11 11 0 0 0 7 3l2-1-1-2h-4l-2-3h8zm0-14h5l20 15-6 1-3-3h-8l1 3h-5zm51 41-31-7 54-1zm14-26h-15l-11-15 15-1 2 4h-10l2 2h9l3 4h-9l1 2h10zm-37-36-23-33c-5-6-4-9 4-9h5c7-1 13 2 18 9l7 10h-9l-7-10c-2-2-3-3-6-3h-1c-3 0-3 1-2 3l23 32 6 3h2c2 0 3-1 1-3l-8-11 9-1 9 12c4 6 3 9-5 9l-5 1c-7 0-13-3-18-9zm51 30 1 3v1l-2 1-3 1a23 23 0 0 1 -10-3l1-3c2 2 5 2 7 2h1l1-1h-1l-1-1h-3a61 61 0 0 1 -6-2l-2-1-2-2h-1v-4l1-1h3a20 20 0 0 1 9 2v3a23 23 0 0 0 -6-2l-2 1 1 1h1l1 1h2a41 41 0 0 1 6 1l2 2zm-93-49-9-12c-1-2-3-3-6-3h-4l14 18h4c2 0 3-1 1-3zm22 50-2-5 6 5zm-250-184-114 3c-10 0-11 3-6 10l67 90a39 39 0 0 0 2 3l5 5 3 1h1l3 1 70 18 7 1 6-2 42-20 2-1 1-1c1-2 0-3-1-5l-2-3-66-90c-6-7-11-10-20-10zm-37 19h9l37 50h-10zm46 62h5l11 15h-5l-6-9-1 6-9-5 6 8h-5l-11-15h6l8 6zm-77-62h15c8 0 14 3 18 9l10 13c4 7 3 10-5 10h-5l13 18h-9zm-26 1h21l5 6-11 1 10 14h11l5 7h-11l11 15h12l5 7h-21zm73 75-2 2h-9a22 22 0 0 1 -8-4l-3-3-2-3 1-3 2-2h3c3 0 6 0 10 2l-1 3-3-1-3-1-2 1v1 3l2 1a11 11 0 0 0 7 3l2-1-1-2h-4l-2-3h8zm0-14h5l20 15-6 1-3-3h-8l1 3h-5zm51 41-31-7 54-1zm14-26h-15l-11-15 15-1 2 4h-10l2 2h9l3 4h-9l1 2h10zm-37-36-23-33c-5-6-4-9 4-9h5c7-1 13 2 18 9l7 10h-9l-7-10c-2-2-3-3-6-3h-1c-3 0-3 1-2 3l23 32 6 3h2c2 0 3-1 1-3l-8-11 9-1 9 12c4 6 3 9-5 9l-5 1c-7 0-13-3-18-9zm51 30 1 3v1l-2 1-3 1a23 23 0 0 1 -10-3l1-3c2 2 5 2 7 2h1l1-1h-1l-1-1h-3a61 61 0 0 1 -6-2l-2-1-2-2h-1v-4l1-1h3a20 20 0 0 1 9 2v3a23 23 0 0 0 -6-2l-2 1 1 1h1l1 1h2a41 41 0 0 1 6 1l2 2zm-93-49-9-12c-1-2-3-3-6-3h-4l14 18h4c2 0 3-1 1-3zm22 50-2-5 6 5zm-250-184-114 3c-10 0-11 3-6 10l67 90a39 39 0 0 0 2 3l5 5 3 1h1l3 1 70 18 7 1 6-2 42-20 2-1 1-1c1-2 0-3-1-5l-2-3-66-90c-6-7-11-10-20-10zm-37 19h9l37 50h-10zm46 62h5l11 15h-5l-6-9-1 6-9-5 6 8h-5l-11-15h6l8 6zm-77-62h15c8 0 14 3 18 9l10 13c4 7 3 10-5 10h-5l13 18h-9zm-26 1h21l5 6-11 1 10 14h11l5 7h-11l11 15h12l5 7h-21zm73 75-2 2h-9a22 22 0 0 1 -8-4l-3-3-2-3 1-3 2-2h3c3 0 6 0 10 2l-1 3-3-1-3-1-2 1v1 3l2 1a11 11 0 0 0 7 3l2-1-1-2h-4l-2-3h8zm0-14h5l20 15-6 1-3-3h-8l1 3h-5zm51 41-31-7 54-1zm14-26h-15l-11-15 15-1 2 4h-10l2 2h9l3 4h-9l1 2h10zm-37-36-23-33c-5-6-4-9 4-9h5c7-1 13 2 18 9l7 10h-9l-7-10c-2-2-3-3-6-3h-1c-3 0-3 1-2 3l23 32 6 3h2c2 0 3-1 1-3l-8-11 9-1 9 12c4 6 3 9-5 9l-5 1c-7 0-13-3-18-9zm51 30 1 3v1l-2 1-3 1a23 23 0 0 1 -10-3l1-3c2 2 5 2 7 2h1l1-1h-1l-1-1h-3a61 61 0 0 1 -6-2l-2-1-2-2h-1v-4l1-1h3a20 20 0 0 1 9 2v3a23 23 0 0 0 -6-2l-2 1 1 1h1l1 1h2a41 41 0 0 1 6 1l2 2zm-93-49-9-12c-1-2-3-3-6-3h-4l14 18h4c2 0 3-1 1-3zm22 50-2-5 6 5zm1228 483-114 3c-10 0-11 3-6 10l67 90 1 3h1l5 5 3 1h1l3 1 70 18 7 1 6-2 42-20 2-1 1-1c1-2 0-3-1-5l-2-3-66-90c-6-7-11-10-20-10zm-37 19h9l37 50h-10zm46 62h5l11 15h-5l-6-9-1 6-9-5 6 8h-5l-11-15h6l8 6zm-77-62h15c8 0 14 3 18 9l10 13c4 7 3 10-5 10h-5l13 18h-9zm-26 1h21l5 6-11 1 10 14h11l5 7h-11l11 15h12l5 7h-21zm73 75-2 2h-9a23 23 0 0 1 -8-4l-3-3-2-3 1-3 2-2h3c3 0 6 0 10 2l-1 3-3-1-3-1-2 1v1 3l2 1a11 11 0 0 0 7 3l2-1-1-2h-4l-2-3h8zm0-14h5l20 15-6 1-3-3h-8l1 3h-5zm51 41-31-7 54-1zm14-26h-15l-11-15 15-1 2 4h-10l2 2h9l3 4h-9l1 2h10zm-37-36-23-33c-5-6-3-9 4-9h5c7-1 13 2 18 9l7 10h-9l-7-10c-2-2-3-3-6-3h-1c-3 0-3 1-2 3l23 32 6 3h2c2 0 3-1 1-3l-8-11 9-1 9 12c4 6 3 9-5 9l-5 1c-7 0-13-3-18-9zm51 30 1 3v1l-2 1-3 1a23 23 0 0 1 -10-3l1-3c2 2 5 2 7 2h1l1-1h-1l-1-1h-3a60 60 0 0 1 -6-2l-2-1-2-2h-1v-4l1-1h3a20 20 0 0 1 9 2v3a23 23 0 0 0 -6-2l-2 1 1 1h1l1 1h2a41 41 0 0 1 6 1l2 2zm-93-49-9-12c-1-2-3-3-6-3h-4l14 18h4c2 0 3-1 1-3zm22 50-2-5 6 5zm176 111-114 3c-10 0-11 3-6 10l67 90 1 3h1l5 5 3 1h1l3 1 70 18 7 1 6-2 42-20 2-1 1-1c1-2 0-3-1-5l-2-3-66-90c-6-7-11-10-20-10zm-37 19h9l37 50h-10zm46 62h5l11 15h-5l-6-9-1 6-9-5 6 8h-5l-11-15h6l8 6zm-77-62h15c8 0 14 3 18 9l10 13c4 7 3 10-5 10h-5l13 18h-9zm-26 1h21l5 6-11 1 10 14h11l5 7h-11l11 15h12l5 7h-21zm73 75-2 2h-9a23 23 0 0 1 -8-4l-3-3-2-3 1-3 2-2h3c3 0 6 0 10 2l-1 3-3-1-3-1-2 1v1 3l2 1a11 11 0 0 0 7 3l2-1-1-2h-4l-2-3h8zm0-14h5l20 15-6 1-3-3h-8l1 3h-5zm51 41-31-7 54-1zm14-26h-15l-11-15 15-1 2 4h-10l2 2h9l3 4h-9l1 2h10zm-37-36-23-33c-5-6-3-9 4-9h5c7-1 13 2 18 9l7 10h-9l-7-10c-2-2-3-3-6-3h-1c-3 0-3 1-2 3l23 32 6 3h2c2 0 3-1 1-3l-8-11 9-1 9 12c4 6 3 9-5 9l-5 1c-7 0-13-3-18-9zm51 30 1 3v1l-2 1-3 1a23 23 0 0 1 -10-3l1-3c2 2 5 2 7 2h1l1-1h-1l-1-1h-3a60 60 0 0 1 -6-2l-2-1-2-2h-1v-4l1-1h3a20 20 0 0 1 9 2v3a23 23 0 0 0 -6-2l-2 1 1 1h1l1 1h2a41 41 0 0 1 6 1l2 2zm-93-49-9-12c-1-2-3-3-6-3h-4l14 18h4c2 0 3-1 1-3zm22 50-2-5 6 5zm-195-596-114 3c-10 0-11 3-6 10l67 90a43 43 0 0 0 2 3 17 17 0 0 0 8 6h1l3 1 70 18 7 1 6-2 42-20 2-1 1-1c1-2 0-3-1-5l-2-3-66-90c-6-7-11-10-20-10zm-37 19h9l37 50h-10zm46 62h5l11 15h-5l-6-9-1 6-9-5 6 8h-5l-11-15h6l8 6zm-77-62h15c8 0 14 3 18 9l10 13c4 7 3 10-5 10h-5l13 18h-9zm-26 1h21l5 6-11 1 10 14h11l5 7h-11l11 15h12l5 7h-21zm73 75-2 2h-9a23 23 0 0 1 -8-4l-3-3-2-3 1-3 2-2h3c3 0 6 0 10 2l-1 3-3-1-3-1-2 1v1 3l2 1a11 11 0 0 0 7 3l2-1-1-2h-4l-2-3h8zm0-14h5l20 15-6 1-3-3h-8l1 3h-5zm51 41-31-7 54-1zm14-26h-15l-11-15 15-1 2 4h-10l2 2h9l3 4h-9l1 2h10zm-37-36-23-33c-5-6-3-9 4-9h5c7-1 13 2 18 9l7 10h-9l-7-10c-2-2-3-3-6-3h-1c-3 0-3 1-2 3l23 32 6 3h2c2 0 3-1 1-3l-8-11 9-1 9 12c4 6 3 9-5 9l-5 1c-7 0-13-3-18-9zm51 30 1 3v1l-2 1-3 1a23 23 0 0 1 -10-3l1-3c2 2 5 2 7 2h1l1-1h-1l-1-1h-3a60 60 0 0 1 -6-2l-2-1-2-2h-1v-4l1-1h3a20 20 0 0 1 9 2v3a23 23 0 0 0 -6-2l-2 1 1 1h1l1 1h2a41 41 0 0 1 6 1l2 2zm-93-49-9-12c-1-2-3-3-6-3h-4l14 18h4c2 0 3-1 1-3zm22 50-2-5 6 5zm-250-184-114 3c-10 0-11 3-6 10l67 90a43 43 0 0 0 2 3 17 17 0 0 0 8 6h1l3 1 70 18 7 1 6-2 42-20 2-1 1-1c1-2 0-3-1-5l-2-3-66-90c-6-7-11-10-20-10zm-37 19h9l37 50h-10zm46 62h5l11 15h-5l-6-9-1 6-9-5 6 8h-5l-11-15h6l8 6zm-77-62h15c8 0 14 3 18 9l10 13c4 7 3 10-5 10h-5l13 18h-9zm-26 1h21l5 6-11 1 10 14h11l5 7h-11l11 15h12l5 7h-21zm73 75-2 2h-9a23 23 0 0 1 -8-4l-3-3-2-3 1-3 2-2h3c3 0 6 0 10 2l-1 3-3-1-3-1-2 1v1 3l2 1a11 11 0 0 0 7 3l2-1-1-2h-4l-2-3h8zm0-14h5l20 15-6 1-3-3h-8l1 3h-5zm51 41-31-7 54-1zm14-26h-15l-11-15 15-1 2 4h-10l2 2h9l3 4h-9l1 2h10zm-37-36-23-33c-5-6-3-9 4-9h5c7-1 13 2 18 9l7 10h-9l-7-10c-2-2-3-3-6-3h-1c-3 0-3 1-2 3l23 32 6 3h2c2 0 3-1 1-3l-8-11 9-1 9 12c4 6 3 9-5 9l-5 1c-7 0-13-3-18-9zm51 30 1 3v1l-2 1-3 1a23 23 0 0 1 -10-3l1-3c2 2 5 2 7 2h1l1-1h-1l-1-1h-3a60 60 0 0 1 -6-2l-2-1-2-2h-1v-4l1-1h3a20 20 0 0 1 9 2v3a23 23 0 0 0 -6-2l-2 1 1 1h1l1 1h2a41 41 0 0 1 6 1l2 2zm-93-49-9-12c-1-2-3-3-6-3h-4l14 18h4c2 0 3-1 1-3zm22 50-2-5 6 5zm-250-184-114 3c-10 0-11 3-6 10l67 90a39 39 0 0 0 2 3l5 5 3 1h1l3 1 70 18 7 1 6-2 42-20 2-1 1-1c1-2 0-3-1-5l-2-3-66-90c-6-7-11-10-20-10zm-37 19h9l37 50h-10zm46 62h5l11 15h-5l-6-9-1 6-9-5 6 8h-5l-11-15h6l8 6zm-77-62h15c8 0 14 3 18 9l10 13c4 7 3 10-5 10h-5l13 18h-9zm-26 1h21l5 6-11 1 10 14h11l5 7h-11l11 15h12l5 7h-21zm73 75-2 2h-9a22 22 0 0 1 -8-4l-3-3-2-3 1-3 2-2h3c3 0 6 0 10 2l-1 3-3-1-3-1-2 1v1 3l2 1a11 11 0 0 0 7 3l2-1-1-2h-4l-2-3h8zm0-14h5l20 15-6 1-3-3h-8l1 3h-5zm51 41-31-7 54-1zm14-26h-15l-11-15 15-1 2 4h-10l2 2h9l3 4h-9l1 2h10zm-37-36-23-33c-5-6-3-9 4-9h5c7-1 13 2 18 9l7 10h-9l-7-10c-2-2-3-3-6-3h-1c-3 0-3 1-2 3l23 32 6 3h2c2 0 3-1 1-3l-8-11 9-1 9 12c4 6 3 9-5 9l-5 1c-7 0-13-3-18-9zm51 30 1 3v1l-2 1-3 1a23 23 0 0 1 -10-3l1-3c2 2 5 2 7 2h1l1-1h-1l-1-1h-3a60 60 0 0 1 -6-2l-2-1-2-2h-1v-4l1-1h3a20 20 0 0 1 9 2v3a23 23 0 0 0 -6-2l-2 1 1 1h1l1 1h2a41 41 0 0 1 6 1l2 2zm-93-49-9-12c-1-2-3-3-6-3h-4l14 18h4c2 0 3-1 1-3zm22 50-2-5 6 5zm-250-184-114 3c-10 0-11 3-6 10l67 90a39 39 0 0 0 2 3l5 5 3 1h1l3 1 70 18 7 1 6-2 42-20 2-1 1-1c1-2 0-3-1-5l-2-3-66-90c-6-7-11-10-20-10zm-37 19h9l37 50h-10zm46 62h5l11 15h-5l-6-9-1 6-9-5 6 8h-5l-11-15h6l8 6zm-77-62h15c8 0 14 3 18 9l10 13c4 7 3 10-5 10h-5l13 18h-9zm-26 1h21l5 6-11 1 10 14h11l5 7h-11l11 15h12l5 7h-21zm73 75-2 2h-9a22 22 0 0 1 -8-4l-3-3-2-3 1-3 2-2h3c3 0 6 0 10 2l-1 3-3-1-3-1-2 1v1 3l2 1a11 11 0 0 0 7 3l2-1-1-2h-4l-2-3h8zm0-14h5l20 15-6 1-3-3h-8l1 3h-5zm51 41-31-7 54-1zm14-26h-15l-11-15 15-1 2 4h-10l2 2h9l3 4h-9l1 2h10zm-37-36-23-33c-5-6-4-9 4-9h5c7-1 13 2 18 9l7 10h-9l-7-10c-2-2-3-3-6-3h-1c-3 0-3 1-2 3l23 32 6 3h2c2 0 3-1 1-3l-8-11 9-1 9 12c4 6 3 9-5 9l-5 1c-7 0-13-3-18-9zm51 30 1 3v1l-2 1-3 1a23 23 0 0 1 -10-3l1-3c2 2 5 2 7 2h1l1-1h-1l-1-1h-3a61 61 0 0 1 -6-2l-2-1-2-2h-1v-4l1-1h3a20 20 0 0 1 9 2v3a23 23 0 0 0 -6-2l-2 1 1 1h1l1 1h2a41 41 0 0 1 6 1l2 2zm-93-49-9-12c-1-2-3-3-6-3h-4l14 18h4c2 0 3-1 1-3zm22 50-2-5 6 5zm-250-184-114 3c-10 0-11 3-6 10l67 90a39 39 0 0 0 2 3l5 5a104 104 0 0 0 4 1l3 1 70 18 7 1 6-2 42-20 2-1 1-1c1-2 0-3-1-5a69 69 0 0 1 -2-3l-66-90c-6-7-11-10-20-10zm-37 19h9l37 50h-10zm46 62h5l11 15h-5l-6-9-1 6-9-5 6 8h-5l-11-15h6l8 6zm-77-62h15c8 0 14 3 18 9l10 13c4 7 3 10-5 10h-5l13 18h-9zm-26 1h21l5 6-11 1 10 14h11l5 7h-11l11 15h12l5 7h-21zm73 75-2 2h-9a22 22 0 0 1 -8-4l-3-3-2-3 1-3 2-2h3c3 0 6 0 10 2l-1 3-3-1-3-1-2 1v1 3l2 1a11 11 0 0 0 7 3l2-1-1-2h-4l-2-3h8zm0-14h5l20 15-6 1-3-3h-8l1 3h-5zm51 41-31-7 54-1zm14-26h-15l-11-15 15-1 2 4h-10l2 2h9l3 4h-9l1 2h10zm-37-36-23-33c-5-6-4-9 4-9h5c7-1 13 2 18 9l7 10h-9l-7-10c-2-2-3-3-6-3h-1c-3 0-3 1-2 3l23 32 6 3h2c2 0 3-1 1-3l-8-11 9-1 9 12c4 6 3 9-5 9l-5 1c-7 0-13-3-18-9zm51 30 1 3v1l-2 1-3 1a23 23 0 0 1 -10-3l1-3c2 2 5 2 7 2h1l1-1h-1l-1-1h-3a62 62 0 0 1 -6-2l-2-1-2-2h-1v-4l1-1h3a20 20 0 0 1 9 2v3a23 23 0 0 0 -6-2l-2 1 1 1h1l1 1h2a41 41 0 0 1 6 1l2 2zm-93-49-9-12c-1-2-3-3-6-3h-4l14 18h4c2 0 3-1 1-3zm22 50-2-5 6 5zm1228 483-114 3c-10 0-11 3-6 10l67 90 1 3h1l5 5 3 1h1l3 1 70 18 7 1 6-2 42-20 2-1 1-1c1-2 0-3-1-5l-2-3-66-90c-6-7-11-10-20-10zm-37 19h9l37 50h-10zm46 62h5l11 15h-5l-6-9-1 6-9-5 6 8h-5l-11-15h6l8 6zm-77-62h15c8 0 14 3 18 9l10 13c4 7 3 10-5 10h-5l13 18h-9zm-26 1h21l5 6-11 1 10 14h11l5 7h-11l11 15h12l5 7h-21zm73 75-2 2h-9a23 23 0 0 1 -8-4l-3-3-2-3 1-3 2-2h3c3 0 6 0 10 2l-1 3-3-1-3-1-2 1v1 3l2 1a11 11 0 0 0 7 3l2-1-1-2h-4l-2-3h8zm0-14h5l20 15-6 1-3-3h-8l1 3h-5zm51 41-31-7 54-1zm14-26h-15l-11-15 15-1 2 4h-10l2 2h9l3 4h-9l1 2h10zm-37-36-23-33c-5-6-3-9 4-9h5c7-1 13 2 18 9l7 10h-9l-7-10c-2-2-3-3-6-3h-1c-3 0-3 1-2 3l23 32 6 3h2c2 0 3-1 1-3l-8-11 9-1 9 12c4 6 3 9-5 9l-5 1c-7 0-13-3-18-9zm51 30 1 3v1l-2 1-3 1a23 23 0 0 1 -10-3l1-3c2 2 5 2 7 2h1l1-1h-1l-1-1h-3a60 60 0 0 1 -6-2l-2-1-2-2h-1v-4l1-1h3a20 20 0 0 1 9 2v3a23 23 0 0 0 -6-2l-2 1 1 1h1l1 1h2a41 41 0 0 1 6 1l2 2zm-93-49-9-12c-1-2-3-3-6-3h-4l14 18h4c2 0 3-1 1-3zm22 50-2-5 6 5zm176 111-114 3c-10 0-11 3-6 10l67 90 1 3h1l5 5 3 1h1l3 1 70 18 7 1 6-2 42-20 2-1 1-1c1-2 0-3-1-5l-2-3-66-90c-6-7-11-10-20-10zm-37 19h9l37 50h-10zm46 62h5l11 15h-5l-6-9-1 6-9-5 6 8h-5l-11-15h6l8 6zm-77-62h15c8 0 14 3 18 9l10 13c4 7 3 10-5 10h-5l13 18h-9zm-26 1h21l5 6-11 1 10 14h11l5 7h-11l11 15h12l5 7h-21zm73 75-2 2h-9a23 23 0 0 1 -8-4l-3-3-2-3 1-3 2-2h3c3 0 6 0 10 2l-1 3-3-1-3-1-2 1v1 3l2 1a11 11 0 0 0 7 3l2-1-1-2h-4l-2-3h8zm0-14h5l20 15-6 1-3-3h-8l1 3h-5zm51 41-31-7 54-1zm14-26h-15l-11-15 15-1 2 4h-10l2 2h9l3 4h-9l1 2h10zm-37-36-23-33c-5-6-3-9 4-9h5c7-1 13 2 18 9l7 10h-9l-7-10c-2-2-3-3-6-3h-1c-3 0-3 1-2 3l23 32 6 3h2c2 0 3-1 1-3l-8-11 9-1 9 12c4 6 3 9-5 9l-5 1c-7 0-13-3-18-9zm51 30 1 3v1l-2 1-3 1a23 23 0 0 1 -10-3l1-3c2 2 5 2 7 2h1l1-1h-1l-1-1h-3a60 60 0 0 1 -6-2l-2-1-2-2h-1v-4l1-1h3a20 20 0 0 1 9 2v3a23 23 0 0 0 -6-2l-2 1 1 1h1l1 1h2a41 41 0 0 1 6 1l2 2zm-93-49-9-12c-1-2-3-3-6-3h-4l14 18h4c2 0 3-1 1-3zm22 50-2-5 6 5zm-195-596-114 3c-10 0-11 3-6 10l67 90a43 43 0 0 0 2 3 17 17 0 0 0 8 6h1l3 1 70 18 7 1 6-2 42-20 2-1 1-1c1-2 0-3-1-5l-2-3-66-90c-6-7-11-10-20-10zm-37 19h9l37 50h-10zm46 62h5l11 15h-5l-6-9-1 6-9-5 6 8h-5l-11-15h6l8 6zm-77-62h15c8 0 14 3 18 9l10 13c4 7 3 10-5 10h-5l13 18h-9zm-26 1h21l5 6-11 1 10 14h11l5 7h-11l11 15h12l5 7h-21zm73 75-2 2h-9a23 23 0 0 1 -8-4l-3-3-2-3 1-3 2-2h3c3 0 6 0 10 2l-1 3-3-1-3-1-2 1v1 3l2 1a11 11 0 0 0 7 3l2-1-1-2h-4l-2-3h8zm0-14h5l20 15-6 1-3-3h-8l1 3h-5zm51 41-31-7 54-1zm14-26h-15l-11-15 15-1 2 4h-10l2 2h9l3 4h-9l1 2h10zm-37-36-23-33c-5-6-3-9 4-9h5c7-1 13 2 18 9l7 10h-9l-7-10c-2-2-3-3-6-3h-1c-3 0-3 1-2 3l23 32 6 3h2c2 0 3-1 1-3l-8-11 9-1 9 12c4 6 3 9-5 9l-5 1c-7 0-13-3-18-9zm51 30 1 3v1l-2 1-3 1a23 23 0 0 1 -10-3l1-3c2 2 5 2 7 2h1l1-1h-1l-1-1h-3a60 60 0 0 1 -6-2l-2-1-2-2h-1v-4l1-1h3a20 20 0 0 1 9 2v3a23 23 0 0 0 -6-2l-2 1 1 1h1l1 1h2a41 41 0 0 1 6 1l2 2zm-93-49-9-12c-1-2-3-3-6-3h-4l14 18h4c2 0 3-1 1-3zm22 50-2-5 6 5zm-250-184-114 3c-10 0-11 3-6 10l67 90a43 43 0 0 0 2 3 17 17 0 0 0 8 6h1l3 1 70 18 7 1 6-2 42-20 2-1 1-1c1-2 0-3-1-5l-2-3-66-90c-6-7-11-10-20-10zm-37 19h9l37 50h-10zm46 62h5l11 15h-5l-6-9-1 6-9-5 6 8h-5l-11-15h6l8 6zm-77-62h15c8 0 14 3 18 9l10 13c4 7 3 10-5 10h-5l13 18h-9zm-26 1h21l5 6-11 1 10 14h11l5 7h-11l11 15h12l5 7h-21zm73 75-2 2h-9a23 23 0 0 1 -8-4l-3-3-2-3 1-3 2-2h3c3 0 6 0 10 2l-1 3-3-1-3-1-2 1v1 3l2 1a11 11 0 0 0 7 3l2-1-1-2h-4l-2-3h8zm0-14h5l20 15-6 1-3-3h-8l1 3h-5zm51 41-31-7 54-1zm14-26h-15l-11-15 15-1 2 4h-10l2 2h9l3 4h-9l1 2h10zm-37-36-23-33c-5-6-3-9 4-9h5c7-1 13 2 18 9l7 10h-9l-7-10c-2-2-3-3-6-3h-1c-3 0-3 1-2 3l23 32 6 3h2c2 0 3-1 1-3l-8-11 9-1 9 12c4 6 3 9-5 9l-5 1c-7 0-13-3-18-9zm51 30 1 3v1l-2 1-3 1a23 23 0 0 1 -10-3l1-3c2 2 5 2 7 2h1l1-1h-1l-1-1h-3a60 60 0 0 1 -6-2l-2-1-2-2h-1v-4l1-1h3a20 20 0 0 1 9 2v3a23 23 0 0 0 -6-2l-2 1 1 1h1l1 1h2a41 41 0 0 1 6 1l2 2zm-93-49-9-12c-1-2-3-3-6-3h-4l14 18h4c2 0 3-1 1-3zm22 50-2-5 6 5zm-250-184-114 3c-10 0-11 3-6 10l67 90a43 43 0 0 0 2 3l5 5 3 1h1l3 1 70 18 7 1 6-2 42-20 2-1 1-1c1-2 0-3-1-5l-2-3-66-90c-6-7-11-10-20-10zm-37 19h9l37 50h-10zm46 62h5l11 15h-5l-6-9-1 6-9-5 6 8h-5l-11-15h6l8 6zm-77-62h15c8 0 14 3 18 9l10 13c4 7 3 10-5 10h-5l13 18h-9zm-26 1h21l5 6-11 1 10 14h11l5 7h-11l11 15h12l5 7h-21zm73 75-2 2h-9a23 23 0 0 1 -8-4l-3-3-2-3 1-3 2-2h3c3 0 6 0 10 2l-1 3-3-1-3-1-2 1v1 3l2 1a11 11 0 0 0 7 3l2-1-1-2h-4l-2-3h8zm0-14h5l20 15-6 1-3-3h-8l1 3h-5zm51 41-31-7 54-1zm14-26h-15l-11-15 15-1 2 4h-10l2 2h9l3 4h-9l1 2h10zm-37-36-23-33c-5-6-3-9 4-9h5c7-1 13 2 18 9l7 10h-9l-7-10c-2-2-3-3-6-3h-1c-3 0-3 1-2 3l23 32 6 3h2c2 0 3-1 1-3l-8-11 9-1 9 12c4 6 3 9-5 9l-5 1c-7 0-13-3-18-9zm51 30 1 3v1l-2 1-3 1a23 23 0 0 1 -10-3l1-3c2 2 5 2 7 2h1l1-1h-1l-1-1h-3a60 60 0 0 1 -6-2l-2-1-2-2h-1v-4l1-1h3a20 20 0 0 1 9 2v3a23 23 0 0 0 -6-2l-2 1 1 1h1l1 1h2a41 41 0 0 1 6 1l2 2zm-93-49-9-12c-1-2-3-3-6-3h-4l14 18h4c2 0 3-1 1-3zm22 50-2-5 6 5zm-250-184-114 3c-10 0-11 3-6 10l67 90a39 39 0 0 0 2 3l5 5a104 104 0 0 0 4 1l3 1 70 18 7 1 6-2 42-20 2-1 1-1c1-2 0-3-1-5a69 69 0 0 1 -2-3l-66-90c-6-7-11-10-20-10zm-37 19h9l37 50h-10zm46 62h5l11 15h-5l-6-9-1 6-9-5 6 8h-5l-11-15h6l8 6zm-77-62h15c8 0 14 3 18 9l10 13c4 7 3 10-5 10h-5l13 18h-9zm-26 1h21l5 6-11 1 10 14h11l5 7h-11l11 15h12l5 7h-21zm73 75-2 2h-9a22 22 0 0 1 -8-4l-3-3-2-3 1-3 2-2h3c3 0 6 0 10 2l-1 3-3-1-3-1-2 1v1 3l2 1a11 11 0 0 0 7 3l2-1-1-2h-4l-2-3h8zm0-14h5l20 15-6 1-3-3h-8l1 3h-5zm51 41-31-7 54-1zm14-26h-15l-11-15 15-1 2 4h-10l2 2h9l3 4h-9l1 2h10zm-37-36-23-33c-5-6-4-9 4-9h5c7-1 13 2 18 9l7 10h-9l-7-10c-2-2-3-3-6-3h-1c-3 0-3 1-2 3l23 32 6 3h2c2 0 3-1 1-3l-8-11 9-1 9 12c4 6 3 9-5 9l-5 1c-7 0-13-3-18-9zm51 30 1 3v1l-2 1-3 1a23 23 0 0 1 -10-3l1-3c2 2 5 2 7 2h1l1-1h-1l-1-1h-3a62 62 0 0 1 -6-2l-2-1-2-2h-1v-4l1-1h3a20 20 0 0 1 9 2v3a23 23 0 0 0 -6-2l-2 1 1 1h1l1 1h2a41 41 0 0 1 6 1l2 2zm-93-49-9-12c-1-2-3-3-6-3h-4l14 18h4c2 0 3-1 1-3zm22 50-2-5 6 5zm-250-184-114 3c-10 0-11 3-6 10l67 90a39 39 0 0 0 2 3l5 5 3 1h1l3 1 70 18 7 1 6-2 42-20 2-1 1-1c1-2 0-3-1-5a69 69 0 0 1 -2-3l-66-90c-6-7-11-10-20-10zm-37 19h9l37 50h-10zm46 62h5l11 15h-5l-6-9-1 6-9-5 6 8h-5l-11-15h6l8 6zm-77-62h15c8 0 14 3 18 9l10 13c4 7 3 10-5 10h-5l13 18h-9zm-26 1h21l5 6-11 1 10 14h11l5 7h-11l11 15h12l5 7h-21zm73 75-2 2h-9a22 22 0 0 1 -8-4l-3-3-2-3 1-3 2-2h3c3 0 6 0 10 2l-1 3-3-1-3-1-2 1v1 3l2 1a11 11 0 0 0 7 3l2-1-1-2h-4l-2-3h8zm0-14h5l20 15-6 1-3-3h-8l1 3h-5zm51 41-31-7 54-1zm14-26h-15l-11-15 15-1 2 4h-10l2 2h9l3 4h-9l1 2h10zm-37-36-23-33c-5-6-4-9 4-9h5c7-1 13 2 18 9l7 10h-9l-7-10c-2-2-3-3-6-3h-1c-3 0-3 1-2 3l23 32 6 3h2c2 0 3-1 1-3l-8-11 9-1 9 12c4 6 3 9-5 9l-5 1c-7 0-13-3-18-9zm51 30 1 3v1l-2 1-3 1a23 23 0 0 1 -10-3l1-3c2 2 5 2 7 2h1l1-1h-1l-1-1h-3a62 62 0 0 1 -6-2l-2-1-2-2h-1v-4l1-1h3a20 20 0 0 1 9 2v3a23 23 0 0 0 -6-2l-2 1 1 1h1l1 1h2a41 41 0 0 1 6 1l2 2zm-93-49-9-12c-1-2-3-3-6-3h-4l14 18h4c2 0 3-1 1-3zm22 50-2-5 6 5zm1228 483-114 3c-10 0-11 3-6 10l67 90 1 3h1l5 5 3 1h1l3 1 70 18 7 1 6-2 42-20 2-1 1-1c1-2 0-3-1-5l-2-3-66-90c-6-7-11-10-20-10zm-37 19h9l37 50h-10zm46 62h5l11 15h-5l-6-9-1 6-9-5 6 8h-5l-11-15h6l8 6zm-77-62h15c8 0 14 3 18 9l10 13c4 7 3 10-5 10h-5l13 18h-9zm-26 1h21l5 6-11 1 10 14h11l5 7h-11l11 15h12l5 7h-21zm73 75-2 2h-9a23 23 0 0 1 -8-4l-3-3-2-3 1-3 2-2h3c3 0 6 0 10 2l-1 3-3-1-3-1-2 1v1 3l2 1a11 11 0 0 0 7 3l2-1-1-2h-4l-2-3h8zm0-14h5l20 15-6 1-3-3h-8l1 3h-5zm51 41-31-7 54-1zm14-26h-15l-11-15 15-1 2 4h-10l2 2h9l3 4h-9l1 2h10zm-37-36-23-33c-5-6-3-9 4-9h5c7-1 13 2 18 9l7 10h-9l-7-10c-2-2-3-3-6-3h-1c-3 0-3 1-2 3l23 32 6 3h2c2 0 3-1 1-3l-8-11 9-1 9 12c4 6 3 9-5 9l-5 1c-7 0-13-3-18-9zm51 30 1 3v1l-2 1-3 1a23 23 0 0 1 -10-3l1-3c2 2 5 2 7 2h1l1-1h-1l-1-1h-3a60 60 0 0 1 -6-2l-2-1-2-2h-1v-4l1-1h3a20 20 0 0 1 9 2v3a23 23 0 0 0 -6-2l-2 1 1 1h1l1 1h2a41 41 0 0 1 6 1l2 2zm-93-49-9-12c-1-2-3-3-6-3h-4l14 18h4c2 0 3-1 1-3zm22 50-2-5 6 5zm176 111-114 3c-10 0-11 3-6 10l67 90 1 3h1l5 5 3 1h1l3 1 70 18 7 1 6-2 42-20 2-1 1-1c1-2 0-3-1-5l-2-3-66-90c-6-7-11-10-20-10zm-37 19h9l37 50h-10zm46 62h5l11 15h-5l-6-9-1 6-9-5 6 8h-5l-11-15h6l8 6zm-77-62h15c8 0 14 3 18 9l10 13c4 7 3 10-5 10h-5l13 18h-9zm-26 1h21l5 6-11 1 10 14h11l5 7h-11l11 15h12l5 7h-21zm73 75-2 2h-9a23 23 0 0 1 -8-4l-3-3-2-3 1-3 2-2h3c3 0 6 0 10 2l-1 3-3-1-3-1-2 1v1 3l2 1a11 11 0 0 0 7 3l2-1-1-2h-4l-2-3h8zm0-14h5l20 15-6 1-3-3h-8l1 3h-5zm51 41-31-7 54-1zm14-26h-15l-11-15 15-1 2 4h-10l2 2h9l3 4h-9l1 2h10zm-37-36-23-33c-5-6-3-9 4-9h5c7-1 13 2 18 9l7 10h-9l-7-10c-2-2-3-3-6-3h-1c-3 0-3 1-2 3l23 32 6 3h2c2 0 3-1 1-3l-8-11 9-1 9 12c4 6 3 9-5 9l-5 1c-7 0-13-3-18-9zm51 30 1 3v1l-2 1-3 1a23 23 0 0 1 -10-3l1-3c2 2 5 2 7 2h1l1-1h-1l-1-1h-3a60 60 0 0 1 -6-2l-2-1-2-2h-1v-4l1-1h3a20 20 0 0 1 9 2v3a23 23 0 0 0 -6-2l-2 1 1 1h1l1 1h2a41 41 0 0 1 6 1l2 2zm-93-49-9-12c-1-2-3-3-6-3h-4l14 18h4c2 0 3-1 1-3zm22 50-2-5 6 5zm-195-596-114 3c-10 0-11 3-6 10l67 90a43 43 0 0 0 2 3l5 5 3 1h1l3 1 70 18 7 1 6-2 42-20 2-1 1-1c1-2 0-3-1-5l-2-3-66-90c-6-7-11-10-20-10zm-37 19h9l37 50h-10zm46 62h5l11 15h-5l-6-9-1 6-9-5 6 8h-5l-11-15h6l8 6zm-77-62h15c8 0 14 3 18 9l10 13c4 7 3 10-5 10h-5l13 18h-9zm-26 1h21l5 6-11 1 10 14h11l5 7h-11l11 15h12l5 7h-21zm73 75-2 2h-9a23 23 0 0 1 -8-4l-3-3-2-3 1-3 2-2h3c3 0 6 0 10 2l-1 3-3-1-3-1-2 1v1 3l2 1a11 11 0 0 0 7 3l2-1-1-2h-4l-2-3h8zm0-14h5l20 15-6 1-3-3h-8l1 3h-5zm51 41-31-7 54-1zm14-26h-15l-11-15 15-1 2 4h-10l2 2h9l3 4h-9l1 2h10zm-37-36-23-33c-5-6-3-9 4-9h5c7-1 13 2 18 9l7 10h-9l-7-10c-2-2-3-3-6-3h-1c-3 0-3 1-2 3l23 32 6 3h2c2 0 3-1 1-3l-8-11 9-1 9 12c4 6 3 9-5 9l-5 1c-7 0-13-3-18-9zm51 30 1 3v1l-2 1-3 1a23 23 0 0 1 -10-3l1-3c2 2 5 2 7 2h1l1-1h-1l-1-1h-3a60 60 0 0 1 -6-2l-2-1-2-2h-1v-4l1-1h3a20 20 0 0 1 9 2v3a23 23 0 0 0 -6-2l-2 1 1 1h1l1 1h2a41 41 0 0 1 6 1l2 2zm-93-49-9-12c-1-2-3-3-6-3h-4l14 18h4c2 0 3-1 1-3zm22 50-2-5 6 5zm-250-184-114 3c-10 0-11 3-6 10l67 90a43 43 0 0 0 2 3l5 5 3 1h1l3 1 70 18 7 1 6-2 42-20 2-1 1-1c1-2 0-3-1-5l-2-3-66-90c-6-7-11-10-20-10zm-37 19h9l37 50h-10zm46 62h5l11 15h-5l-6-9-1 6-9-5 6 8h-5l-11-15h6l8 6zm-77-62h15c8 0 14 3 18 9l10 13c4 7 3 10-5 10h-5l13 18h-9zm-26 1h21l5 6-11 1 10 14h11l5 7h-11l11 15h12l5 7h-21zm73 75-2 2h-9a23 23 0 0 1 -8-4l-3-3-2-3 1-3 2-2h3c3 0 6 0 10 2l-1 3-3-1-3-1-2 1v1 3l2 1a11 11 0 0 0 7 3l2-1-1-2h-4l-2-3h8zm0-14h5l20 15-6 1-3-3h-8l1 3h-5zm51 41-31-7 54-1zm14-26h-15l-11-15 15-1 2 4h-10l2 2h9l3 4h-9l1 2h10zm-37-36-23-33c-5-6-3-9 4-9h5c7-1 13 2 18 9l7 10h-9l-7-10c-2-2-3-3-6-3h-1c-3 0-3 1-2 3l23 32 6 3h2c2 0 3-1 1-3l-8-11 9-1 9 12c4 6 3 9-5 9l-5 1c-7 0-13-3-18-9zm51 30 1 3v1l-2 1-3 1a23 23 0 0 1 -10-3l1-3c2 2 5 2 7 2h1l1-1h-1l-1-1h-3a60 60 0 0 1 -6-2l-2-1-2-2h-1v-4l1-1h3a20 20 0 0 1 9 2v3a23 23 0 0 0 -6-2l-2 1 1 1h1l1 1h2a41 41 0 0 1 6 1l2 2zm-93-49-9-12c-1-2-3-3-6-3h-4l14 18h4c2 0 3-1 1-3zm22 50-2-5 6 5zm-250-184-114 3c-10 0-11 3-6 10l67 90a43 43 0 0 0 2 3 17 17 0 0 0 8 6h1l3 1 70 18 7 1 6-2 42-20 2-1 1-1c1-2 0-3-1-5l-2-3-66-90c-6-7-11-10-20-10zm-37 19h9l37 50h-10zm46 62h5l11 15h-5l-6-9-1 6-9-5 6 8h-5l-11-15h6l8 6zm-77-62h15c8 0 14 3 18 9l10 13c4 7 3 10-5 10h-5l13 18h-9zm-26 1h21l5 6-11 1 10 14h11l5 7h-11l11 15h12l5 7h-21zm73 75-2 2h-9a23 23 0 0 1 -8-4l-3-3-2-3 1-3 2-2h3c3 0 6 0 10 2l-1 3-3-1-3-1-2 1v1 3l2 1a11 11 0 0 0 7 3l2-1-1-2h-4l-2-3h8zm0-14h5l20 15-6 1-3-3h-8l1 3h-5zm51 41-31-7 54-1zm14-26h-15l-11-15 15-1 2 4h-10l2 2h9l3 4h-9l1 2h10zm-37-36-23-33c-5-6-3-9 4-9h5c7-1 13 2 18 9l7 10h-9l-7-10c-2-2-3-3-6-3h-1c-3 0-3 1-2 3l23 32 6 3h2c2 0 3-1 1-3l-8-11 9-1 9 12c4 6 3 9-5 9l-5 1c-7 0-13-3-18-9zm51 30 1 3v1l-2 1-3 1a23 23 0 0 1 -10-3l1-3c2 2 5 2 7 2h1l1-1h-1l-1-1h-3a61 61 0 0 1 -6-2l-2-1-2-2h-1v-4l1-1h3a20 20 0 0 1 9 2v3a23 23 0 0 0 -6-2l-2 1 1 1h1l1 1h2a41 41 0 0 1 6 1l2 2zm-93-49-9-12c-1-2-3-3-6-3h-4l14 18h4c2 0 3-1 1-3zm22 50-2-5 6 5zm702 297-114 3c-10 0-11 3-6 10l67 90a43 43 0 0 0 2 3 17 17 0 0 0 8 6h1l3 1 70 18 7 1 6-2 42-20 2-1 1-1c1-2 0-3-1-5l-2-3-66-90c-6-7-11-10-20-10zm-37 19h9l37 50h-10zm46 62h5l11 15h-5l-6-9-1 6-9-5 6 8h-5l-11-15h6l8 6zm-77-62h15c8 0 14 3 18 9l10 13c4 7 3 10-5 10h-5l13 18h-9zm-26 1h21l5 6-11 1 10 14h11l5 7h-11l11 15h12l5 7h-21zm73 75-2 2h-9a23 23 0 0 1 -8-4l-3-3-2-3 1-3 2-2h3c3 0 6 0 10 2l-1 3-3-1-3-1-2 1v1 3l2 1a11 11 0 0 0 7 3l2-1-1-2h-4l-2-3h8zm0-14h5l20 15-6 1-3-3h-8l1 3h-5zm51 41-31-7 54-1zm14-26h-15l-11-15 15-1 2 4h-10l2 2h9l3 4h-9l1 2h10zm-37-36-23-33c-5-6-3-9 4-9h5c7-1 13 2 18 9l7 10h-9l-7-10c-2-2-3-3-6-3h-1c-3 0-3 1-2 3l23 32 6 3h2c2 0 3-1 1-3l-8-11 9-1 9 12c4 6 3 9-5 9l-5 1c-7 0-13-3-18-9zm51 30 1 3v1l-2 1-3 1a23 23 0 0 1 -10-3l1-3c2 2 5 2 7 2h1l1-1h-1l-1-1h-3a60 60 0 0 1 -6-2l-2-1-2-2h-1v-4l1-1h3a20 20 0 0 1 9 2v3a23 23 0 0 0 -6-2l-2 1 1 1h1l1 1h2a41 41 0 0 1 6 1l2 2zm-93-49-9-12c-1-2-3-3-6-3h-4l14 18h4c2 0 3-1 1-3zm22 50-2-5 6 5z" fill="#fff" fill-rule="evenodd" opacity=".3"/><path d="m0 0h1920v1080h-1920z" fill="url(#b)"/><path d="m0 0h1920v1080h-1920z" fill="url(#c)"/><path d="m0 0h1920v1080h-1920z" fill="url(#d)"/></g></svg>