<svg width="239" height="160" viewBox="0 0 239 160" fill="none" xmlns="http://www.w3.org/2000/svg">
<path d="M79.4812 8.25457L51.5891 158.04L69.1031 157.368C88.4047 156.631 106.128 142.283 108.949 125.494L128.66 9.62924L79.4812 8.25457" fill="white"/>
<path d="M125.025 61.3166L177.552 61.5422C194.588 61.6152 201.193 67.5646 205.859 76.8985L238.497 156.039C230.261 163.286 191.767 160.772 180.841 132.356L168.928 100.752L165.976 100.794L163.423 100.812C145.221 101.068 119.46 87.7104 125.025 61.3166" fill="white"/>
<path d="M63.8438 49.6162L71.497 8.02809L44.835 7.28408C7.69484 6.24408 -2.55307 32.1475 0.509424 49.0199L63.8438 49.6162Z" fill="white"/>
<path d="M155.637 58.9604L222.2 44.1662C234.685 36.3626 240.036 8.23871 231.247 4.42044e-05L166.736 15.9534C155.741 21.9747 143.152 39.5381 155.637 58.9604" fill="white"/>
</svg>
