<svg xmlns="http://www.w3.org/2000/svg" xmlns:xlink="http://www.w3.org/1999/xlink" width="40" zoomAndPan="magnify" viewBox="0 0 30 30.000001" height="40" preserveAspectRatio="xMidYMid meet" version="1.0"><defs><clipPath id="46e281d80d"><path d="M 0.484375 6 L 29.515625 6 L 29.515625 23 L 0.484375 23 Z M 0.484375 6 " clip-rule="nonzero"/></clipPath></defs><g clip-path="url(#46e281d80d)"><path fill="#4e60ff" d="M 15 19.773438 C 12.101562 19.773438 9.75 17.421875 9.75 14.523438 C 9.75 11.625 12.101562 9.277344 15 9.277344 C 17.898438 9.277344 20.25 11.625 20.25 14.523438 C 20.25 17.421875 17.898438 19.773438 15 19.773438 Z M 15 6.101562 C 15 6.101562 6.992188 5.714844 0.484375 14.527344 C 6.992188 23.339844 15 22.949219 15 22.949219 C 15 22.949219 23.007812 23.339844 29.515625 14.527344 C 23.007812 5.714844 15 6.101562 15 6.101562 " fill-opacity="1" fill-rule="nonzero"/></g><path fill="#4e60ff" d="M 17.632812 14.527344 C 17.632812 15.980469 16.453125 17.160156 15 17.160156 C 13.546875 17.160156 12.367188 15.980469 12.367188 14.527344 C 12.367188 13.074219 13.546875 11.894531 15 11.894531 C 16.453125 11.894531 17.632812 13.074219 17.632812 14.527344 " fill-opacity="1" fill-rule="nonzero"/></svg>