<svg width="88" height="88" viewBox="0 0 88 88" fill="none" xmlns="http://www.w3.org/2000/svg">
<path d="M39.7299 86.9101C33.1019 86.2751 26.3919 83.8951 20.6279 80.1341C15.7979 76.9841 14.7079 75.6871 14.7079 73.1021C14.7079 67.9091 20.4179 58.8121 30.1879 48.4441C35.7349 42.5541 43.4629 35.6541 44.2979 35.8401C45.9239 36.2031 58.9139 48.8741 63.7779 54.8401C71.4679 64.2701 75.0019 71.9941 73.2059 75.4371C71.8409 78.0541 63.3689 83.1701 57.1459 85.1351C52.0159 86.7551 45.2789 87.4411 39.7299 86.9101V86.9101ZM8.18394 67.7031C4.16994 61.5451 2.14194 55.4831 1.16394 46.7151C0.839936 43.8201 0.953936 42.1651 1.89694 36.2211C3.06994 28.8211 7.28694 20.2511 12.3569 14.9811C14.5149 12.7411 14.7069 12.6811 17.3389 13.5711C20.5289 14.6511 23.9389 17.0071 29.2289 21.7911L32.3189 24.5851L30.6289 26.6551C22.8009 36.2651 14.5389 49.8951 11.4289 58.3251C9.73894 62.9051 9.05894 67.5051 9.78894 69.4201C10.2789 70.7141 9.82894 70.2321 8.17894 67.7061L8.18394 67.7031ZM78.6369 68.7501C79.0339 66.8141 78.5319 63.2601 77.3569 59.6741C74.8119 51.9091 66.3029 37.4641 58.4899 27.6421L56.0299 24.5501L58.6919 22.1071C62.1659 18.9171 64.5779 17.0071 67.1819 15.3841C69.2349 14.1041 72.1699 12.9711 73.4319 12.9711C74.2089 12.9711 76.9479 15.8211 79.1579 18.9211C82.5819 23.7211 85.0999 29.5511 86.3759 35.6111C87.2009 39.5311 87.2699 47.9111 86.5089 51.8211C85.8789 55.0291 84.5589 59.1871 83.2789 62.0081C82.3089 64.1211 79.9189 68.2261 78.8689 69.5621C78.3289 70.2491 78.3289 70.2481 78.6289 68.7661L78.6369 68.7501ZM40.4399 11.5051C36.8339 9.67506 31.2719 7.71006 28.1999 7.18006C27.1239 6.99506 25.2869 6.89006 24.1199 6.95006C21.5839 7.07806 21.6969 6.94606 25.7629 5.02506C29.1429 3.42806 31.9629 2.48906 35.7929 1.68506C40.0979 0.780059 48.1929 0.770059 52.4299 1.66306C57.0049 2.62806 62.3939 4.63306 65.4299 6.50306L66.3339 7.05706L64.2639 6.95306C60.1479 6.74506 54.1499 8.40806 47.7099 11.5401C45.7679 12.4861 44.0799 13.2401 43.9559 13.2201C43.8329 13.1961 42.2499 12.4251 40.4359 11.5051H40.4399Z" fill="#ADB9D9"/>
</svg>
