<svg enable-background="new 0 0 481.5 165.8" viewBox="0 0 481.5 165.8" xmlns="http://www.w3.org/2000/svg"><g fill="#fff"><path d="m132.7 99.3c0 17.3-14 31.3-31.3 31.3s-31.3-14-31.3-31.3v-63.8h-35.1v63.8c0 36.6 29.8 66.3 66.3 66.3 36.6 0 66.3-29.8 66.3-66.3v-99.3h-35v99.3z"/><path d="m269.7 63.2h-36.1c-7.4 0-13.3-6-13.3-13.3v-1.3c0-7.4 6-13.3 13.3-13.3h65.6v-35.3h-65.6c-26.8 0-48.6 21.8-48.6 48.6v1.3c0 26.8 21.8 48.6 48.6 48.6h36.1c6.7 0 13.3 7.8 13.3 15.7 0 7.4-6 13.3-13.3 13.3h-80.3v35.2h80.3c26.8 0 48.6-21.8 48.6-48.6-.1-27.6-22.3-50.9-48.6-50.9z"/><path d="m446.5 98.7v-35.5h-35v35.5h35c0 17.6-14.4 32-32 32h-12.7c-17.6 0-32-14.4-32-32v-27c0-18.8 15.6-36.6 32-36.6h45.4v-35.1h-45.4c-35.7 0-67 33.5-67 71.7v27.1c0 37 30.1 67 67 67h12.7c37 0 67.1-30.1 67.1-67h-35.1z"/><path d="m0 0v35.5h35v-35.5z"/></g></svg>