<svg width="24" height="24" viewBox="0 0 24 24" fill="none" xmlns="http://www.w3.org/2000/svg">
<path d="M12 0C5.373 0 0 5.373 0 12C0 18.627 5.373 24 12 24C18.627 24 24 18.627 24 12C24 5.373 18.627 0 12 0ZM12 22C7.262 22 3.29 18.683 2.265 14.251L6.017 15.829C6.261 17.064 7.355 18.011 8.687 18C10.164 17.986 11.349 16.789 11.359 15.318L11.365 15.315L14.452 13.014C16.427 13.035 18 11.443 18 9.508C18 7.571 16.428 6 14.492 6C12.577 6 11.022 7.535 10.986 9.441L8.723 12.607C8.151 12.595 7.636 12.752 7.188 13.045L2.065 10.89C2.62 5.896 6.862 2 12 2C17.514 2 22 6.486 22 12C22 17.514 17.514 22 12 22ZM9.247 13.909L7.925 13.354C8.174 13.26 8.417 13.217 8.663 13.217C9.801 13.217 10.737 14.143 10.747 15.282C10.757 16.435 9.835 17.376 8.681 17.386C7.814 17.39 7.079 16.873 6.753 16.138L8.077 16.694C8.846 17.017 9.73 16.655 10.054 15.887C10.378 15.119 10.017 14.233 9.247 13.909V13.909ZM12.108 9.508C12.108 8.193 13.177 7.124 14.492 7.124C15.807 7.124 16.876 8.193 16.876 9.508C16.876 10.822 15.807 11.893 14.492 11.893C13.177 11.893 12.108 10.823 12.108 9.508ZM14.492 11.309C13.498 11.309 12.69 10.502 12.69 9.509C12.69 8.516 13.498 7.708 14.492 7.708C15.485 7.708 16.292 8.517 16.292 9.509C16.292 10.501 15.485 11.309 14.492 11.309Z" fill="white"/>
</svg>
